<svg aria-hidden="true" style="position: absolute; width: 0; height: 0; overflow: hidden;" version="1.1"
     xmlns="http://www.w3.org/2000/svg">
<defs>
<symbol id="icon-recycle" viewBox="0 0 32 32">
<path d="M11.998 26.001c0 0.265-0.105 0.52-0.293 0.707s-0.442 0.293-0.707 0.293h-6c-0.526-0-1.044-0.139-1.499-0.403s-0.834-0.642-1.097-1.098c-0.263-0.456-0.402-0.973-0.401-1.5s0.139-1.044 0.402-1.499l4.286-7.406-1.756 0.469c-0.127 0.034-0.26 0.043-0.39 0.025s-0.256-0.060-0.37-0.126c-0.23-0.133-0.398-0.352-0.467-0.609s-0.032-0.531 0.101-0.761c0.133-0.23 0.352-0.398 0.609-0.467l4.096-1.096c0.127-0.034 0.259-0.043 0.389-0.026s0.256 0.060 0.37 0.126c0.114 0.066 0.213 0.153 0.293 0.257s0.139 0.223 0.173 0.35l1.099 4.096c0.035 0.127 0.044 0.261 0.027 0.392s-0.060 0.257-0.126 0.372c-0.066 0.114-0.154 0.214-0.259 0.295s-0.225 0.139-0.353 0.172c-0.085 0.022-0.172 0.033-0.26 0.034-0.22-0-0.434-0.073-0.608-0.207s-0.3-0.322-0.357-0.534l-0.475-1.769-4.286 7.414c-0.088 0.152-0.134 0.324-0.134 0.499s0.046 0.347 0.133 0.499c0.087 0.152 0.213 0.278 0.364 0.366s0.323 0.135 0.498 0.136h6c0.265 0 0.52 0.105 0.707 0.293s0.293 0.442 0.293 0.707zM29.589 22.501l-2.892-5c-0.138-0.218-0.356-0.373-0.606-0.435s-0.515-0.024-0.738 0.106c-0.223 0.129-0.388 0.339-0.46 0.587s-0.045 0.514 0.074 0.742l2.892 5c0.088 0.152 0.134 0.324 0.134 0.499s-0.046 0.347-0.133 0.499c-0.087 0.152-0.213 0.278-0.364 0.366s-0.323 0.135-0.498 0.136h-8.586l1.293-1.293c0.188-0.187 0.293-0.442 0.293-0.707s-0.105-0.52-0.293-0.707c-0.187-0.188-0.442-0.293-0.707-0.293s-0.52 0.105-0.707 0.293l-3 3c-0.093 0.093-0.167 0.203-0.217 0.325s-0.076 0.252-0.076 0.383c0 0.131 0.026 0.261 0.076 0.383s0.124 0.232 0.217 0.325l3 3c0.093 0.093 0.203 0.166 0.325 0.217s0.251 0.076 0.383 0.076c0.131 0 0.261-0.026 0.383-0.076s0.232-0.124 0.324-0.217c0.093-0.093 0.166-0.203 0.217-0.325s0.076-0.251 0.076-0.383c-0-0.131-0.026-0.261-0.076-0.383s-0.124-0.232-0.217-0.324l-1.293-1.292h8.586c0.526-0 1.044-0.139 1.499-0.403s0.834-0.642 1.097-1.098c0.263-0.456 0.402-0.973 0.402-1.5s-0.139-1.044-0.402-1.499h-0.005zM15.998 4.001c0.176-0.002 0.349 0.044 0.501 0.132s0.278 0.215 0.364 0.368l4.286 7.406-1.76-0.473c-0.253-0.059-0.519-0.018-0.742 0.116s-0.385 0.349-0.452 0.6c-0.067 0.251-0.034 0.518 0.093 0.745s0.337 0.396 0.586 0.471l4.097 1.099c0.085 0.022 0.171 0.034 0.259 0.034 0.22-0 0.434-0.073 0.608-0.207s0.3-0.322 0.357-0.534l1.099-4.099c0.038-0.128 0.049-0.262 0.034-0.395s-0.056-0.261-0.121-0.377c-0.065-0.116-0.153-0.218-0.259-0.3s-0.226-0.142-0.355-0.176-0.263-0.043-0.395-0.025c-0.132 0.018-0.259 0.063-0.374 0.131s-0.215 0.159-0.294 0.266-0.136 0.229-0.167 0.359l-0.475 1.771-4.293-7.411c-0.264-0.455-0.642-0.833-1.098-1.096s-0.972-0.401-1.498-0.401c-0.526 0-1.043 0.138-1.498 0.401s-0.834 0.641-1.098 1.096l-2.895 5c-0.124 0.229-0.154 0.498-0.084 0.749s0.237 0.464 0.462 0.595c0.226 0.13 0.493 0.167 0.746 0.103s0.47-0.224 0.607-0.447l2.895-5c0.086-0.153 0.212-0.28 0.364-0.368s0.325-0.133 0.501-0.132z"></path>
</symbol>
<symbol id="icon-snowflake" viewBox="0 0 32 32">
<path d="M27.973 18.762c0.031 0.128 0.037 0.26 0.018 0.39s-0.065 0.255-0.133 0.367c-0.068 0.112-0.157 0.21-0.263 0.288s-0.226 0.134-0.354 0.165l-3.080 0.75 0.807 3.014c0.034 0.127 0.043 0.259 0.026 0.389s-0.060 0.256-0.125 0.37c-0.066 0.114-0.153 0.214-0.257 0.293s-0.223 0.139-0.35 0.173c-0.084 0.024-0.171 0.038-0.259 0.040-0.22-0-0.434-0.073-0.608-0.207s-0.3-0.322-0.357-0.534l-0.965-3.6-5.070-2.926v5.854l2.707 2.706c0.093 0.093 0.167 0.203 0.217 0.325s0.076 0.252 0.076 0.383c0 0.131-0.026 0.261-0.076 0.383s-0.124 0.232-0.217 0.325c-0.093 0.093-0.203 0.167-0.325 0.217s-0.252 0.076-0.383 0.076-0.262-0.026-0.383-0.076c-0.121-0.050-0.232-0.124-0.325-0.217l-2.293-2.294-2.293 2.294c-0.093 0.093-0.203 0.167-0.325 0.217s-0.252 0.076-0.383 0.076-0.261-0.026-0.383-0.076c-0.121-0.050-0.232-0.124-0.325-0.217s-0.167-0.203-0.217-0.325-0.076-0.251-0.076-0.383c0-0.131 0.026-0.262 0.076-0.383s0.124-0.232 0.217-0.325l2.707-2.706v-5.854l-5.069 2.926-0.965 3.6c-0.057 0.213-0.183 0.401-0.357 0.535s-0.389 0.207-0.609 0.207c-0.088-0-0.175-0.012-0.26-0.034-0.127-0.034-0.246-0.093-0.35-0.172s-0.192-0.18-0.257-0.294c-0.066-0.114-0.108-0.239-0.125-0.37s-0.008-0.263 0.026-0.389l0.808-3.014-3.080-0.75c-0.258-0.063-0.479-0.226-0.617-0.453s-0.179-0.499-0.116-0.757c0.063-0.258 0.226-0.479 0.453-0.617s0.499-0.179 0.757-0.116l3.681 0.904 5.081-2.939-5.080-2.933-3.681 0.904c-0.078 0.019-0.158 0.029-0.239 0.029-0.245 0-0.481-0.089-0.664-0.251s-0.3-0.386-0.33-0.628c-0.029-0.243 0.031-0.488 0.17-0.689s0.347-0.344 0.584-0.403l3.080-0.75-0.808-3.020c-0.069-0.256-0.033-0.529 0.1-0.759s0.351-0.397 0.607-0.466c0.256-0.069 0.529-0.033 0.759 0.1s0.397 0.351 0.466 0.607l0.965 3.6 5.069 2.926v-5.854l-2.707-2.706c-0.188-0.188-0.293-0.442-0.293-0.708 0-0.131 0.026-0.261 0.076-0.383s0.124-0.232 0.217-0.325c0.093-0.093 0.203-0.167 0.325-0.217s0.252-0.076 0.383-0.076c0.265 0 0.52 0.105 0.707 0.293l2.293 2.294 2.293-2.294c0.188-0.188 0.442-0.293 0.707-0.293s0.52 0.105 0.707 0.293c0.188 0.188 0.293 0.442 0.293 0.707s-0.105 0.52-0.293 0.707l-2.707 2.706v5.854l5.069-2.926 0.965-3.6c0.069-0.256 0.236-0.475 0.466-0.607s0.503-0.169 0.759-0.1 0.475 0.236 0.607 0.466c0.133 0.23 0.169 0.503 0.1 0.759l-0.807 3.014 3.080 0.75c0.244 0.052 0.46 0.194 0.605 0.397s0.209 0.453 0.179 0.701c-0.030 0.248-0.152 0.475-0.341 0.638s-0.432 0.249-0.682 0.241c-0.080 0-0.161-0.009-0.239-0.029l-3.681-0.904-5.080 2.933 5.080 2.933 3.681-0.904c0.128-0.031 0.26-0.037 0.39-0.017s0.254 0.065 0.367 0.133 0.21 0.158 0.288 0.263c0.078 0.106 0.134 0.226 0.165 0.354z"></path>
</symbol>
<symbol id="icon-wallet" viewBox="0 0 32 32">
<path d="M27 9h-20c-0.265 0-0.52-0.105-0.707-0.293s-0.293-0.442-0.293-0.707c0-0.265 0.105-0.52 0.293-0.707s0.442-0.293 0.707-0.293h17c0.265 0 0.52-0.105 0.707-0.293s0.293-0.442 0.293-0.707-0.105-0.52-0.293-0.707c-0.188-0.188-0.442-0.293-0.707-0.293h-17c-0.796 0-1.559 0.316-2.121 0.879s-0.879 1.326-0.879 2.121v16c0 0.796 0.316 1.559 0.879 2.121s1.326 0.879 2.121 0.879h20c0.53 0 1.039-0.211 1.414-0.586s0.586-0.884 0.586-1.414v-14c0-0.53-0.211-1.039-0.586-1.414s-0.884-0.586-1.414-0.586zM27 25h-20c-0.265 0-0.52-0.105-0.707-0.293s-0.293-0.442-0.293-0.707v-13.171c0.321 0.114 0.659 0.172 1 0.171h20v14zM21 17.5c0-0.297 0.088-0.587 0.253-0.833s0.399-0.439 0.673-0.552c0.274-0.114 0.576-0.143 0.867-0.085s0.558 0.201 0.768 0.411c0.21 0.21 0.353 0.477 0.411 0.768s0.028 0.593-0.085 0.867-0.306 0.508-0.552 0.673c-0.247 0.165-0.537 0.253-0.833 0.253-0.398 0-0.779-0.158-1.061-0.439s-0.439-0.663-0.439-1.061z"></path>
</symbol>
<symbol id="icon-shapes" viewBox="0 0 32 32">
<path d="M8.949 7.684c-0.066-0.199-0.194-0.372-0.364-0.495s-0.375-0.189-0.585-0.189c-0.21 0-0.415 0.066-0.585 0.189s-0.298 0.296-0.364 0.495l-5 15c-0.050 0.15-0.064 0.31-0.040 0.467s0.085 0.305 0.177 0.434c0.093 0.128 0.215 0.233 0.356 0.305s0.297 0.11 0.456 0.11h10c0.158 0 0.315-0.038 0.456-0.11s0.263-0.177 0.356-0.305c0.093-0.129 0.153-0.277 0.177-0.434s0.010-0.317-0.040-0.467l-5-15zM4.388 22l3.612-10.838 3.612 10.838h-7.225zM26 9.5c0-1.286-0.381-2.542-1.095-3.611s-1.729-1.902-2.917-2.394c-1.188-0.492-2.495-0.621-3.756-0.37s-2.419 0.87-3.328 1.779c-0.909 0.909-1.528 2.067-1.779 3.328s-0.122 2.568 0.37 3.756c0.492 1.188 1.325 2.203 2.394 2.917s2.326 1.095 3.611 1.095c1.723-0.002 3.376-0.687 4.594-1.906s1.904-2.871 1.906-4.594zM15 9.5c0-0.89 0.264-1.76 0.758-2.5s1.197-1.317 2.020-1.657c0.822-0.341 1.727-0.43 2.6-0.256s1.675 0.602 2.304 1.232c0.629 0.629 1.058 1.431 1.232 2.304s0.085 1.778-0.256 2.6c-0.341 0.822-0.917 1.525-1.657 2.020s-1.61 0.758-2.5 0.758c-1.193 0-2.338-0.474-3.182-1.318s-1.318-1.989-1.318-3.182zM28 18h-11c-0.265 0-0.52 0.105-0.707 0.293s-0.293 0.442-0.293 0.707v7c0 0.265 0.105 0.52 0.293 0.707s0.442 0.293 0.707 0.293h11c0.265 0 0.52-0.105 0.707-0.293s0.293-0.442 0.293-0.707v-7c0-0.265-0.105-0.52-0.293-0.707s-0.442-0.293-0.707-0.293zM27 25h-9v-5h9v5z"></path>
</symbol>
<symbol id="icon-toggle-on" viewBox="0 0 32 32">
<path d="M22 7h-12c-2.387 0-4.676 0.948-6.364 2.636s-2.636 3.977-2.636 6.364c0 2.387 0.948 4.676 2.636 6.364s3.977 2.636 6.364 2.636h12c2.387 0 4.676-0.948 6.364-2.636s2.636-3.977 2.636-6.364c0-2.387-0.948-4.676-2.636-6.364s-3.977-2.636-6.364-2.636zM22 21c-0.989 0-1.956-0.293-2.778-0.843s-1.463-1.33-1.842-2.244-0.477-1.919-0.285-2.889c0.193-0.97 0.669-1.861 1.368-2.56s1.59-1.175 2.56-1.368c0.97-0.193 1.975-0.094 2.889 0.285s1.695 1.019 2.244 1.842c0.549 0.822 0.843 1.789 0.843 2.778 0 1.326-0.527 2.598-1.464 3.536s-2.21 1.464-3.536 1.464z"></path>
</symbol>
<symbol id="icon-toggle-off" viewBox="0 0 32 32">
<path d="M22 7h-12c-2.387 0-4.676 0.948-6.364 2.636s-2.636 3.977-2.636 6.364c0 2.387 0.948 4.676 2.636 6.364s3.977 2.636 6.364 2.636h12c2.387 0 4.676-0.948 6.364-2.636s2.636-3.977 2.636-6.364c0-2.387-0.948-4.676-2.636-6.364s-3.977-2.636-6.364-2.636zM22 23h-12c-1.857 0-3.637-0.737-4.95-2.050s-2.050-3.093-2.050-4.95c0-1.857 0.737-3.637 2.050-4.95s3.093-2.050 4.95-2.050h12c1.857 0 3.637 0.738 4.95 2.050s2.050 3.093 2.050 4.95c0 1.857-0.737 3.637-2.050 4.95s-3.093 2.050-4.95 2.050zM10 11c-0.989 0-1.956 0.293-2.778 0.843s-1.463 1.33-1.842 2.244c-0.378 0.914-0.477 1.919-0.285 2.889s0.669 1.861 1.368 2.56c0.699 0.699 1.59 1.175 2.56 1.368s1.975 0.094 2.889-0.285 1.695-1.019 2.244-1.842c0.549-0.822 0.843-1.789 0.843-2.778 0-1.326-0.527-2.598-1.464-3.536s-2.209-1.464-3.536-1.464zM10 19c-0.593 0-1.173-0.176-1.667-0.506s-0.878-0.798-1.105-1.346c-0.227-0.548-0.286-1.151-0.171-1.733s0.401-1.116 0.821-1.536c0.42-0.42 0.954-0.705 1.536-0.821s1.185-0.056 1.733 0.171c0.548 0.227 1.017 0.612 1.346 1.105s0.506 1.073 0.506 1.667c0 0.796-0.316 1.559-0.879 2.121s-1.326 0.879-2.121 0.879z"></path>
</symbol>
<symbol id="icon-file" viewBox="0 0 32 32">
<path d="M26.708 10.293l-7-7c-0.093-0.093-0.203-0.166-0.325-0.217s-0.252-0.076-0.383-0.076h-12c-0.53 0-1.039 0.211-1.414 0.586s-0.586 0.884-0.586 1.414v22c0 0.53 0.211 1.039 0.586 1.414s0.884 0.586 1.414 0.586h18c0.53 0 1.039-0.211 1.414-0.586s0.586-0.884 0.586-1.414v-16c0-0.131-0.026-0.261-0.076-0.383s-0.124-0.232-0.217-0.325zM20 6.414l3.586 3.586h-3.586v-3.586zM25 27h-18v-22h11v6c0 0.265 0.105 0.52 0.293 0.707s0.442 0.293 0.707 0.293h6v15zM21 17c0 0.265-0.105 0.52-0.293 0.707s-0.442 0.293-0.707 0.293h-8c-0.265 0-0.52-0.105-0.707-0.293s-0.293-0.442-0.293-0.707c0-0.265 0.105-0.52 0.293-0.707s0.442-0.293 0.707-0.293h8c0.265 0 0.52 0.105 0.707 0.293s0.293 0.442 0.293 0.707zM21 21c0 0.265-0.105 0.52-0.293 0.707s-0.442 0.293-0.707 0.293h-8c-0.265 0-0.52-0.105-0.707-0.293s-0.293-0.442-0.293-0.707 0.105-0.52 0.293-0.707c0.188-0.187 0.442-0.293 0.707-0.293h8c0.265 0 0.52 0.105 0.707 0.293s0.293 0.442 0.293 0.707z"></path>
</symbol>
<symbol id="icon-deny" viewBox="0 0 32 32">
<path d="M16 3c-2.571 0-5.085 0.762-7.222 2.191s-3.804 3.459-4.788 5.834c-0.984 2.375-1.241 4.989-0.74 7.511s1.74 4.838 3.558 6.656 4.134 3.056 6.656 3.558c2.522 0.502 5.136 0.244 7.511-0.74s4.406-2.65 5.834-4.788c1.428-2.138 2.191-4.651 2.191-7.222-0.004-3.447-1.374-6.751-3.812-9.188s-5.742-3.808-9.188-3.812zM27 16c0.003 2.572-0.901 5.063-2.551 7.035l-15.484-15.485c1.606-1.336 3.56-2.187 5.632-2.454s4.178 0.063 6.070 0.949c1.892 0.886 3.492 2.294 4.614 4.056s1.718 3.809 1.719 5.898zM5 16c-0.003-2.572 0.901-5.063 2.551-7.035l15.484 15.485c-1.606 1.336-3.56 2.187-5.632 2.454s-4.178-0.063-6.070-0.949-3.492-2.294-4.614-4.056c-1.122-1.763-1.718-3.809-1.719-5.898z"></path>
</symbol>
<symbol id="icon-mark-check" viewBox="0 0 32 32">
<path d="M29.065 10.061l-16 16c-0.139 0.14-0.305 0.251-0.487 0.327s-0.378 0.115-0.575 0.115-0.393-0.039-0.575-0.115c-0.182-0.076-0.348-0.187-0.487-0.327l-7-7c-0.14-0.14-0.25-0.305-0.326-0.487s-0.114-0.378-0.114-0.575c0-0.197 0.039-0.393 0.114-0.575s0.186-0.348 0.326-0.487c0.14-0.14 0.305-0.25 0.487-0.326s0.378-0.114 0.575-0.114c0.197 0 0.393 0.039 0.575 0.114s0.348 0.186 0.487 0.326l5.939 5.939 14.939-14.936c0.282-0.282 0.664-0.44 1.063-0.44s0.781 0.158 1.062 0.44 0.44 0.664 0.44 1.063c0 0.399-0.158 0.781-0.44 1.063l-0.002-0.002z"></path>
</symbol>
<symbol id="icon-paperclip" viewBox="0 0 32 32">
<path d="M26.207 15.293c0.093 0.093 0.167 0.203 0.217 0.325s0.076 0.252 0.076 0.383-0.026 0.262-0.076 0.383c-0.050 0.121-0.124 0.232-0.217 0.325l-10.256 10.25c-1.313 1.313-3.094 2.050-4.95 2.050s-3.637-0.738-4.95-2.051-2.050-3.094-2.050-4.95c0-1.857 0.738-3.637 2.051-4.95l12.407-12.59c0.937-0.938 2.209-1.466 3.535-1.467s2.599 0.526 3.537 1.463c0.938 0.937 1.466 2.209 1.467 3.535s-0.525 2.599-1.463 3.537l-12.41 12.59c-0.564 0.564-1.328 0.88-2.125 0.88s-1.561-0.317-2.125-0.88c-0.564-0.564-0.88-1.328-0.88-2.125s0.317-1.561 0.88-2.125l10.413-10.578c0.091-0.097 0.201-0.175 0.323-0.23s0.253-0.084 0.387-0.086c0.133-0.003 0.266 0.021 0.39 0.071s0.237 0.123 0.332 0.216c0.095 0.094 0.171 0.205 0.222 0.328s0.077 0.255 0.077 0.389c-0.001 0.133-0.028 0.265-0.080 0.388s-0.129 0.234-0.225 0.326l-10.414 10.589c-0.093 0.092-0.167 0.202-0.218 0.324s-0.077 0.251-0.078 0.382c-0.001 0.131 0.025 0.261 0.075 0.383s0.123 0.232 0.216 0.325c0.092 0.093 0.202 0.167 0.324 0.218s0.251 0.077 0.382 0.078c0.131 0.001 0.261-0.025 0.383-0.075s0.232-0.123 0.325-0.215l12.409-12.584c0.564-0.562 0.881-1.326 0.881-2.122s-0.315-1.56-0.877-2.124-1.326-0.881-2.122-0.881c-0.796-0.001-1.56 0.315-2.124 0.877l-12.405 12.585c-0.465 0.464-0.833 1.015-1.085 1.621s-0.382 1.257-0.382 1.913c-0.001 0.657 0.128 1.307 0.379 1.914s0.619 1.159 1.083 1.623c0.464 0.465 1.015 0.834 1.621 1.085s1.257 0.382 1.913 0.382c0.657 0 1.307-0.128 1.914-0.379s1.158-0.619 1.623-1.083l10.258-10.25c0.188-0.187 0.443-0.291 0.708-0.29s0.519 0.107 0.706 0.295z"></path>
</symbol>
<symbol id="icon-six-dots" viewBox="0 0 32 32">
<path d="M13 7.5c0 0.297-0.088 0.587-0.253 0.833s-0.399 0.439-0.673 0.552c-0.274 0.114-0.576 0.143-0.867 0.085s-0.558-0.201-0.768-0.411c-0.21-0.21-0.353-0.477-0.411-0.768s-0.028-0.593 0.085-0.867c0.114-0.274 0.306-0.508 0.552-0.673s0.537-0.253 0.833-0.253c0.398 0 0.779 0.158 1.061 0.439s0.439 0.663 0.439 1.061zM20.5 9c0.297 0 0.587-0.088 0.833-0.253s0.439-0.399 0.552-0.673 0.143-0.576 0.085-0.867c-0.058-0.291-0.201-0.558-0.411-0.768s-0.477-0.353-0.768-0.411c-0.291-0.058-0.593-0.028-0.867 0.085s-0.508 0.306-0.673 0.552-0.253 0.537-0.253 0.833c0 0.398 0.158 0.779 0.439 1.061s0.663 0.439 1.061 0.439zM11.5 14.5c-0.297 0-0.587 0.088-0.833 0.253s-0.439 0.399-0.552 0.673c-0.114 0.274-0.143 0.576-0.085 0.867s0.201 0.558 0.411 0.768c0.21 0.21 0.477 0.353 0.768 0.411s0.593 0.028 0.867-0.085c0.274-0.114 0.508-0.306 0.673-0.552s0.253-0.537 0.253-0.833c0-0.398-0.158-0.779-0.439-1.061s-0.663-0.439-1.061-0.439zM20.5 14.5c-0.297 0-0.587 0.088-0.833 0.253s-0.439 0.399-0.552 0.673c-0.114 0.274-0.143 0.576-0.085 0.867s0.201 0.558 0.411 0.768c0.21 0.21 0.477 0.353 0.768 0.411s0.593 0.028 0.867-0.085c0.274-0.114 0.508-0.306 0.673-0.552s0.253-0.537 0.253-0.833c0-0.398-0.158-0.779-0.439-1.061s-0.663-0.439-1.061-0.439zM11.5 23c-0.297 0-0.587 0.088-0.833 0.253s-0.439 0.399-0.552 0.673c-0.114 0.274-0.143 0.576-0.085 0.867s0.201 0.558 0.411 0.768c0.21 0.21 0.477 0.353 0.768 0.411s0.593 0.028 0.867-0.085 0.508-0.306 0.673-0.552c0.165-0.247 0.253-0.537 0.253-0.833 0-0.398-0.158-0.779-0.439-1.061s-0.663-0.439-1.061-0.439zM20.5 23c-0.297 0-0.587 0.088-0.833 0.253s-0.439 0.399-0.552 0.673c-0.114 0.274-0.143 0.576-0.085 0.867s0.201 0.558 0.411 0.768c0.21 0.21 0.477 0.353 0.768 0.411s0.593 0.028 0.867-0.085c0.274-0.114 0.508-0.306 0.673-0.552s0.253-0.537 0.253-0.833c0-0.398-0.158-0.779-0.439-1.061s-0.663-0.439-1.061-0.439z"></path>
</symbol>
<symbol id="icon-eye" viewBox="0 0 32 32">
<path d="M30.914 15.595c-0.044-0.099-1.103-2.447-3.456-4.801-3.136-3.136-7.097-4.794-11.457-4.794s-8.321 1.657-11.457 4.794c-2.354 2.354-3.417 4.706-3.456 4.801-0.057 0.128-0.086 0.266-0.086 0.406s0.029 0.278 0.086 0.406c0.044 0.099 1.103 2.446 3.456 4.8 3.136 3.135 7.098 4.792 11.457 4.792s8.321-1.657 11.457-4.792c2.354-2.354 3.413-4.701 3.456-4.8 0.057-0.128 0.086-0.266 0.086-0.406s-0.029-0.278-0.086-0.406zM16 24c-3.848 0-7.209-1.399-9.991-4.156-1.142-1.135-2.113-2.43-2.884-3.844 0.771-1.414 1.742-2.709 2.884-3.844 2.783-2.757 6.144-4.156 9.991-4.156s7.209 1.399 9.991 4.156c1.144 1.135 2.117 2.43 2.89 3.844-0.901 1.683-4.827 8-12.881 8zM16 10c-1.187 0-2.347 0.352-3.333 1.011s-1.756 1.596-2.21 2.693c-0.454 1.096-0.573 2.303-0.341 3.467s0.803 2.233 1.642 3.072c0.839 0.839 1.908 1.411 3.072 1.642s2.37 0.113 3.467-0.342c1.096-0.454 2.034-1.223 2.693-2.21s1.011-2.147 1.011-3.333c-0.002-1.591-0.634-3.116-1.759-4.241s-2.65-1.758-4.241-1.759zM16 20c-0.791 0-1.564-0.235-2.222-0.674s-1.17-1.064-1.473-1.795c-0.303-0.731-0.382-1.535-0.228-2.311s0.535-1.489 1.095-2.048c0.559-0.559 1.272-0.94 2.048-1.095s1.58-0.075 2.311 0.228c0.731 0.303 1.356 0.815 1.795 1.473s0.674 1.431 0.674 2.222c0 1.061-0.421 2.078-1.172 2.828s-1.768 1.172-2.828 1.172z"></path>
</symbol>
<symbol id="icon-cross" viewBox="0 0 32 32">
<path d="M26.065 23.938c0.282 0.282 0.44 0.664 0.44 1.062s-0.158 0.781-0.44 1.063c-0.282 0.282-0.664 0.44-1.063 0.44s-0.781-0.158-1.062-0.44l-7.936-7.939-7.939 7.936c-0.282 0.282-0.664 0.44-1.063 0.44s-0.781-0.158-1.063-0.44c-0.282-0.282-0.44-0.664-0.44-1.062s0.158-0.781 0.44-1.063l7.939-7.936-7.936-7.939c-0.282-0.282-0.44-0.664-0.44-1.063s0.158-0.781 0.44-1.063c0.282-0.282 0.664-0.44 1.063-0.44s0.781 0.158 1.062 0.44l7.936 7.939 7.939-7.94c0.282-0.282 0.664-0.44 1.063-0.44s0.781 0.158 1.062 0.44 0.44 0.664 0.44 1.063c0 0.399-0.158 0.781-0.44 1.062l-7.939 7.94 7.936 7.939z"></path>
</symbol>
<symbol id="icon-bell" viewBox="0 0 32 32">
<path d="M27.724 21.993c-0.694-1.195-1.725-4.576-1.725-8.993 0-2.652-1.054-5.196-2.929-7.071s-4.419-2.929-7.071-2.929c-2.652 0-5.196 1.054-7.071 2.929s-2.929 4.419-2.929 7.071c0 4.418-1.032 7.798-1.726 8.993-0.177 0.304-0.271 0.649-0.272 1.001s0.090 0.697 0.265 1.002 0.427 0.558 0.732 0.735c0.304 0.176 0.65 0.269 1.001 0.27h5.101c0.231 1.129 0.844 2.144 1.737 2.872s2.010 1.127 3.162 1.127c1.152 0 2.269-0.398 3.162-1.127s1.506-1.743 1.737-2.872h5.101c0.352-0 0.697-0.094 1.001-0.27s0.556-0.43 0.731-0.735c0.175-0.305 0.266-0.651 0.265-1.002s-0.095-0.697-0.272-1zM15.999 27c-0.62-0-1.225-0.193-1.732-0.551s-0.889-0.864-1.096-1.449h5.655c-0.207 0.585-0.59 1.091-1.096 1.449s-1.111 0.551-1.732 0.551zM5.999 23c0.963-1.655 2-5.49 2-10 0-2.122 0.843-4.157 2.343-5.657s3.535-2.343 5.657-2.343c2.122 0 4.157 0.843 5.657 2.343s2.343 3.535 2.343 5.657c0 4.506 1.035 8.341 2 10h-20z"></path>
</symbol>
<symbol id="icon-sun" viewBox="0 0 32 32">
<path d="M15 5v-3c0-0.265 0.105-0.52 0.293-0.707s0.442-0.293 0.707-0.293c0.265 0 0.52 0.105 0.707 0.293s0.293 0.442 0.293 0.707v3c0 0.265-0.105 0.52-0.293 0.707s-0.442 0.293-0.707 0.293c-0.265 0-0.52-0.105-0.707-0.293s-0.293-0.442-0.293-0.707zM24 16c0 1.582-0.469 3.129-1.348 4.445s-2.129 2.341-3.59 2.946c-1.462 0.606-3.070 0.764-4.622 0.455s-2.977-1.071-4.096-2.189-1.881-2.544-2.189-4.096c-0.309-1.552-0.15-3.16 0.455-4.622s1.631-2.711 2.946-3.59c1.316-0.879 2.862-1.348 4.445-1.348 2.121 0.002 4.155 0.846 5.654 2.346s2.343 3.533 2.346 5.654zM22 16c0-1.187-0.352-2.347-1.011-3.333s-1.596-1.756-2.693-2.21-2.303-0.573-3.467-0.341c-1.164 0.232-2.233 0.803-3.072 1.642s-1.411 1.908-1.642 3.072c-0.232 1.164-0.113 2.37 0.341 3.467s1.223 2.034 2.21 2.693c0.987 0.659 2.147 1.011 3.333 1.011 1.591-0.002 3.116-0.634 4.241-1.759s1.758-2.65 1.759-4.241zM7.293 8.707c0.188 0.188 0.442 0.293 0.707 0.293s0.52-0.105 0.707-0.293c0.188-0.188 0.293-0.442 0.293-0.707s-0.105-0.52-0.293-0.707l-2-2c-0.188-0.188-0.442-0.293-0.707-0.293s-0.52 0.105-0.707 0.293c-0.188 0.188-0.293 0.442-0.293 0.707s0.105 0.52 0.293 0.707l2 2zM7.293 23.292l-2 2c-0.188 0.188-0.293 0.442-0.293 0.708s0.105 0.52 0.293 0.708c0.188 0.188 0.442 0.293 0.707 0.293s0.52-0.105 0.707-0.293l2-2c0.093-0.093 0.167-0.203 0.217-0.325s0.076-0.251 0.076-0.383-0.026-0.262-0.076-0.383c-0.050-0.121-0.124-0.232-0.217-0.325s-0.203-0.167-0.325-0.217-0.252-0.076-0.383-0.076c-0.131 0-0.261 0.026-0.383 0.076s-0.232 0.124-0.325 0.217zM24 9c0.131 0 0.261-0.026 0.383-0.076s0.232-0.124 0.325-0.217l2-2c0.188-0.188 0.293-0.442 0.293-0.707s-0.105-0.52-0.293-0.707c-0.188-0.188-0.442-0.293-0.708-0.293s-0.52 0.105-0.708 0.293l-2 2c-0.14 0.14-0.235 0.318-0.274 0.512s-0.019 0.395 0.057 0.578 0.204 0.339 0.369 0.449c0.165 0.11 0.358 0.168 0.556 0.168zM24.708 23.292c-0.188-0.188-0.442-0.293-0.708-0.293s-0.52 0.105-0.708 0.293c-0.188 0.188-0.293 0.442-0.293 0.708s0.105 0.52 0.293 0.708l2 2c0.093 0.093 0.203 0.167 0.325 0.217s0.251 0.076 0.383 0.076 0.262-0.026 0.383-0.076c0.121-0.050 0.232-0.124 0.325-0.217s0.167-0.203 0.217-0.325c0.050-0.121 0.076-0.251 0.076-0.383s-0.026-0.262-0.076-0.383c-0.050-0.121-0.124-0.232-0.217-0.325l-2-2zM6 16c0-0.265-0.105-0.52-0.293-0.707s-0.442-0.293-0.707-0.293h-3c-0.265 0-0.52 0.105-0.707 0.293s-0.293 0.442-0.293 0.707c0 0.265 0.105 0.52 0.293 0.707s0.442 0.293 0.707 0.293h3c0.265 0 0.52-0.105 0.707-0.293s0.293-0.442 0.293-0.707zM16 26c-0.265 0-0.52 0.105-0.707 0.293s-0.293 0.442-0.293 0.707v3c0 0.265 0.105 0.52 0.293 0.707s0.442 0.293 0.707 0.293 0.52-0.105 0.707-0.293c0.188-0.188 0.293-0.442 0.293-0.707v-3c0-0.265-0.105-0.52-0.293-0.707s-0.442-0.293-0.707-0.293zM30 15h-3c-0.265 0-0.52 0.105-0.707 0.293s-0.293 0.442-0.293 0.707 0.105 0.52 0.293 0.707c0.188 0.188 0.442 0.293 0.707 0.293h3c0.265 0 0.52-0.105 0.707-0.293s0.293-0.442 0.293-0.707-0.105-0.52-0.293-0.707c-0.188-0.188-0.442-0.293-0.707-0.293z"></path>
</symbol>
<symbol id="icon-gear" viewBox="0 0 32 32">
<path d="M16.002 10c-1.187 0-2.347 0.352-3.333 1.011s-1.756 1.596-2.21 2.693c-0.454 1.096-0.573 2.303-0.341 3.467s0.803 2.233 1.642 3.072c0.839 0.839 1.908 1.411 3.072 1.642s2.37 0.113 3.467-0.341c1.096-0.454 2.033-1.223 2.693-2.21s1.011-2.147 1.011-3.333c-0.002-1.591-0.634-3.116-1.759-4.241s-2.65-1.758-4.241-1.759zM16.002 20c-0.791 0-1.565-0.235-2.222-0.674s-1.17-1.064-1.473-1.795c-0.303-0.731-0.382-1.535-0.228-2.311s0.535-1.489 1.095-2.048c0.559-0.559 1.272-0.94 2.048-1.095s1.58-0.075 2.311 0.228c0.731 0.303 1.356 0.815 1.795 1.473s0.674 1.431 0.674 2.222c0 1.061-0.421 2.078-1.172 2.828s-1.768 1.172-2.828 1.172zM27.002 16.27c0.005-0.18 0.005-0.36 0-0.54l1.865-2.33c0.098-0.122 0.165-0.266 0.198-0.419s0.028-0.312-0.013-0.463c-0.306-1.149-0.763-2.253-1.36-3.281-0.078-0.135-0.187-0.249-0.317-0.334s-0.279-0.139-0.433-0.157l-2.965-0.33c-0.123-0.13-0.248-0.255-0.375-0.375l-0.35-2.973c-0.018-0.155-0.072-0.303-0.157-0.433s-0.2-0.239-0.335-0.317c-1.029-0.596-2.132-1.053-3.281-1.359-0.151-0.040-0.31-0.044-0.463-0.012s-0.297 0.1-0.419 0.198l-2.324 1.855c-0.18 0-0.36 0-0.54 0l-2.33-1.861c-0.122-0.098-0.266-0.165-0.419-0.198s-0.312-0.028-0.463 0.013c-1.149 0.306-2.252 0.764-3.281 1.36-0.135 0.078-0.249 0.187-0.334 0.317s-0.139 0.279-0.157 0.433l-0.33 2.97c-0.13 0.124-0.255 0.249-0.375 0.375l-2.973 0.341c-0.155 0.018-0.303 0.072-0.433 0.157s-0.239 0.2-0.317 0.335c-0.596 1.029-1.053 2.132-1.359 3.281-0.040 0.151-0.044 0.31-0.012 0.463s0.1 0.297 0.198 0.419l1.855 2.324c0 0.18 0 0.36 0 0.54l-1.861 2.33c-0.098 0.122-0.165 0.266-0.198 0.419s-0.028 0.312 0.013 0.463c0.306 1.149 0.763 2.253 1.36 3.281 0.078 0.135 0.187 0.249 0.317 0.334s0.279 0.139 0.433 0.157l2.965 0.33c0.124 0.13 0.249 0.255 0.375 0.375l0.346 2.973c0.018 0.155 0.072 0.303 0.157 0.433s0.2 0.239 0.335 0.317c1.029 0.596 2.132 1.053 3.281 1.359 0.151 0.040 0.31 0.044 0.463 0.012s0.297-0.1 0.419-0.198l2.324-1.855c0.18 0.005 0.36 0.005 0.54 0l2.33 1.865c0.122 0.098 0.266 0.166 0.419 0.198s0.312 0.028 0.463-0.013c1.149-0.306 2.253-0.763 3.281-1.36 0.135-0.078 0.249-0.187 0.334-0.317s0.139-0.279 0.157-0.433l0.33-2.965c0.13-0.123 0.255-0.248 0.375-0.375l2.973-0.35c0.155-0.018 0.303-0.072 0.433-0.157s0.239-0.2 0.317-0.335c0.596-1.029 1.053-2.132 1.359-3.281 0.040-0.151 0.044-0.31 0.012-0.463s-0.1-0.297-0.198-0.419l-1.855-2.324zM24.99 15.458c0.021 0.361 0.021 0.724 0 1.085-0.015 0.247 0.063 0.491 0.217 0.685l1.774 2.216c-0.204 0.647-0.464 1.274-0.779 1.875l-2.825 0.32c-0.246 0.027-0.473 0.145-0.637 0.33-0.241 0.271-0.497 0.527-0.768 0.768-0.185 0.164-0.303 0.391-0.33 0.637l-0.314 2.823c-0.601 0.315-1.228 0.575-1.875 0.779l-2.218-1.774c-0.177-0.142-0.398-0.219-0.625-0.219h-0.060c-0.361 0.021-0.724 0.021-1.085 0-0.247-0.015-0.492 0.063-0.685 0.217l-2.223 1.775c-0.647-0.203-1.274-0.464-1.875-0.779l-0.32-2.821c-0.027-0.246-0.145-0.473-0.33-0.637-0.271-0.241-0.527-0.497-0.768-0.768-0.164-0.185-0.391-0.303-0.637-0.33l-2.822-0.315c-0.315-0.601-0.575-1.228-0.779-1.875l1.774-2.218c0.155-0.194 0.232-0.438 0.218-0.685-0.021-0.361-0.021-0.724 0-1.085 0.015-0.247-0.063-0.492-0.218-0.685l-1.774-2.221c0.204-0.647 0.464-1.274 0.779-1.875l2.821-0.32c0.246-0.027 0.473-0.145 0.637-0.33 0.241-0.271 0.497-0.527 0.768-0.768 0.186-0.164 0.304-0.392 0.331-0.639l0.314-2.821c0.601-0.315 1.228-0.575 1.875-0.779l2.217 1.774c0.193 0.155 0.438 0.232 0.685 0.218 0.361-0.021 0.724-0.021 1.085 0 0.247 0.015 0.491-0.063 0.685-0.218l2.221-1.774c0.647 0.204 1.274 0.464 1.875 0.779l0.32 2.821c0.027 0.246 0.145 0.473 0.33 0.637 0.271 0.241 0.527 0.497 0.767 0.768 0.164 0.185 0.392 0.303 0.638 0.33l2.822 0.314c0.315 0.601 0.575 1.228 0.779 1.875l-1.774 2.217c-0.156 0.195-0.234 0.442-0.217 0.691h0.004z"></path>
</symbol>
<symbol id="icon-speaker" viewBox="0 0 32 32">
<path d="M19.439 3.101c-0.168-0.082-0.356-0.115-0.542-0.096s-0.363 0.091-0.511 0.206l-8.73 6.789h-5.656c-0.53 0-1.039 0.211-1.414 0.586s-0.586 0.884-0.586 1.414v8c0 0.53 0.211 1.039 0.586 1.414s0.884 0.586 1.414 0.586h5.656l8.73 6.789c0.148 0.115 0.325 0.186 0.511 0.205s0.374-0.014 0.542-0.096c0.168-0.082 0.31-0.21 0.409-0.368s0.152-0.342 0.152-0.529v-24c0-0.187-0.053-0.371-0.152-0.53s-0.241-0.287-0.409-0.369zM4 12h5v8h-5v-8zM18 25.955l-7-5.444v-9.022l7-5.444v19.91zM24.75 12.695c0.804 0.913 1.248 2.088 1.248 3.305s-0.444 2.392-1.248 3.305c-0.177 0.194-0.423 0.311-0.685 0.325s-0.519-0.075-0.716-0.248c-0.197-0.174-0.318-0.418-0.336-0.679s0.067-0.52 0.237-0.72c0.482-0.548 0.748-1.253 0.748-1.982s-0.266-1.435-0.748-1.982c-0.17-0.2-0.256-0.458-0.237-0.72s0.139-0.506 0.336-0.679c0.197-0.174 0.454-0.263 0.716-0.248s0.508 0.131 0.685 0.325zM31 16c0.001 2.46-0.905 4.834-2.546 6.668-0.178 0.193-0.425 0.308-0.687 0.32s-0.519-0.079-0.714-0.254c-0.196-0.175-0.314-0.42-0.331-0.682s0.070-0.52 0.242-0.718c1.312-1.467 2.037-3.365 2.037-5.333s-0.725-3.866-2.037-5.333c-0.090-0.097-0.16-0.212-0.205-0.336s-0.066-0.257-0.059-0.39c0.006-0.133 0.039-0.262 0.096-0.382s0.137-0.227 0.236-0.316 0.214-0.156 0.34-0.2c0.125-0.043 0.258-0.061 0.391-0.053s0.262 0.043 0.381 0.102c0.119 0.059 0.225 0.141 0.312 0.241 1.641 1.832 2.548 4.206 2.546 6.666z"></path>
</symbol>
<symbol id="icon-eye-slash" viewBox="0 0 32 32">
<path d="M6.74 4.327c-0.088-0.099-0.194-0.18-0.314-0.237s-0.249-0.091-0.381-0.098c-0.132-0.007-0.264 0.012-0.389 0.056s-0.239 0.113-0.337 0.202c-0.098 0.089-0.177 0.197-0.233 0.316s-0.088 0.25-0.093 0.382c-0.006 0.132 0.015 0.264 0.061 0.388s0.116 0.238 0.206 0.335l2.405 2.646c-4.54 2.786-6.492 7.081-6.579 7.276-0.057 0.128-0.086 0.266-0.086 0.406s0.029 0.278 0.086 0.406c0.044 0.099 1.103 2.446 3.456 4.8 3.136 3.135 7.098 4.793 11.457 4.793 2.241 0.013 4.459-0.449 6.509-1.354l2.75 3.026c0.088 0.099 0.194 0.18 0.314 0.237s0.249 0.091 0.381 0.098c0.132 0.007 0.264-0.012 0.389-0.057s0.239-0.113 0.337-0.202c0.098-0.089 0.177-0.197 0.233-0.316s0.088-0.25 0.093-0.382c0.005-0.132-0.015-0.264-0.061-0.388s-0.116-0.238-0.206-0.335l-19.999-22zM12.656 13.807l5.209 5.731c-0.784 0.413-1.684 0.553-2.556 0.399s-1.67-0.593-2.266-1.249-0.957-1.491-1.027-2.375c-0.070-0.884 0.156-1.765 0.641-2.507zM16 23.999c-3.848 0-7.209-1.399-9.991-4.156-1.142-1.135-2.113-2.43-2.884-3.844 0.586-1.099 2.458-4.174 5.919-6.172l2.25 2.469c-0.871 1.116-1.32 2.503-1.267 3.918s0.605 2.765 1.557 3.812c0.952 1.047 2.244 1.724 3.647 1.911s2.827-0.128 4.020-0.89l1.841 2.025c-1.625 0.623-3.352 0.938-5.092 0.929zM16.75 12.070c-0.261-0.050-0.491-0.201-0.64-0.42s-0.205-0.489-0.155-0.75c0.050-0.261 0.201-0.491 0.42-0.64s0.489-0.205 0.75-0.155c1.275 0.247 2.435 0.9 3.308 1.86s1.413 2.178 1.538 3.47c0.025 0.264-0.056 0.527-0.226 0.731s-0.413 0.333-0.677 0.357c-0.031 0.002-0.063 0.002-0.094 0-0.25 0.001-0.491-0.091-0.676-0.259s-0.3-0.399-0.324-0.648c-0.084-0.86-0.444-1.669-1.025-2.308s-1.353-1.073-2.2-1.238zM30.91 16.407c-0.053 0.117-1.319 2.921-4.17 5.475-0.097 0.090-0.212 0.16-0.336 0.205s-0.257 0.066-0.39 0.059c-0.133-0.006-0.262-0.039-0.382-0.096s-0.227-0.137-0.316-0.236c-0.089-0.099-0.156-0.214-0.2-0.34s-0.062-0.258-0.053-0.391 0.043-0.262 0.102-0.381c0.059-0.119 0.141-0.225 0.241-0.312 1.399-1.257 2.574-2.742 3.475-4.393-0.772-1.415-1.745-2.711-2.89-3.846-2.782-2.755-6.144-4.154-9.991-4.154-0.811-0.001-1.62 0.065-2.42 0.196-0.13 0.023-0.263 0.020-0.392-0.009s-0.251-0.083-0.359-0.159c-0.108-0.076-0.2-0.173-0.27-0.285s-0.118-0.237-0.139-0.367c-0.022-0.13-0.018-0.264 0.012-0.392s0.085-0.25 0.162-0.357c0.077-0.107 0.175-0.198 0.287-0.267s0.238-0.115 0.368-0.136c0.909-0.15 1.829-0.225 2.75-0.224 4.36 0 8.321 1.657 11.457 4.794 2.354 2.354 3.413 4.702 3.456 4.801 0.057 0.128 0.086 0.266 0.086 0.406s-0.029 0.278-0.086 0.406h-0.004z"></path>
</symbol>
<symbol id="icon-lock" viewBox="0 0 32 32">
<path d="M16 14c-0.841 0-1.653 0.303-2.289 0.853s-1.052 1.31-1.174 2.142c-0.121 0.832 0.061 1.679 0.513 2.388s1.144 1.231 1.949 1.471v2.146c0 0.265 0.105 0.52 0.293 0.707s0.442 0.293 0.707 0.293 0.52-0.105 0.707-0.293c0.188-0.188 0.293-0.442 0.293-0.707v-2.146c0.805-0.24 1.497-0.763 1.949-1.471s0.634-1.556 0.513-2.388-0.538-1.592-1.174-2.142c-0.636-0.55-1.448-0.853-2.289-0.853zM16 19c-0.297 0-0.587-0.088-0.833-0.253s-0.439-0.399-0.552-0.673c-0.114-0.274-0.143-0.576-0.085-0.867s0.201-0.558 0.411-0.768c0.21-0.21 0.477-0.353 0.768-0.411s0.593-0.028 0.867 0.085c0.274 0.114 0.508 0.306 0.673 0.552s0.253 0.537 0.253 0.833c0 0.398-0.158 0.779-0.439 1.061s-0.663 0.439-1.061 0.439zM26 10h-4v-3c0-1.591-0.632-3.117-1.757-4.243s-2.651-1.757-4.243-1.757c-1.591 0-3.117 0.632-4.243 1.757s-1.757 2.651-1.757 4.243v3h-4c-0.53 0-1.039 0.211-1.414 0.586s-0.586 0.884-0.586 1.414v14c0 0.53 0.211 1.039 0.586 1.414s0.884 0.586 1.414 0.586h20c0.53 0 1.039-0.211 1.414-0.586s0.586-0.884 0.586-1.414v-14c0-0.53-0.211-1.039-0.586-1.414s-0.884-0.586-1.414-0.586zM12 7c0-1.061 0.421-2.078 1.172-2.828s1.768-1.172 2.828-1.172c1.061 0 2.078 0.421 2.828 1.172s1.172 1.768 1.172 2.828v3h-8v-3zM26 26h-20v-14h20v14z"></path>
</symbol>
<symbol id="icon-pin-fill" viewBox="0 0 32 32">
<path d="M29.414 13l-6.684 6.706c0.57 1.584 0.806 4.236-1.649 7.5-0.172 0.23-0.391 0.419-0.643 0.556s-0.53 0.218-0.816 0.238c-0.047 0-0.094 0-0.141 0-0.263 0-0.523-0.052-0.766-0.152s-0.463-0.248-0.649-0.434l-6.032-6.039-5.329 5.333c-0.188 0.188-0.442 0.293-0.708 0.293s-0.52-0.105-0.707-0.293c-0.188-0.188-0.293-0.442-0.293-0.708s0.105-0.52 0.293-0.707l5.332-5.329-6.037-6.037c-0.198-0.199-0.353-0.437-0.453-0.699s-0.144-0.543-0.129-0.823c0.015-0.28 0.090-0.554 0.218-0.804s0.308-0.47 0.527-0.646c3.178-2.564 6.219-2.060 7.55-1.643l6.7-6.724c0.186-0.186 0.406-0.333 0.649-0.434s0.503-0.152 0.765-0.152c0.263 0 0.523 0.052 0.765 0.152s0.463 0.248 0.649 0.434l7.586 7.585c0.375 0.375 0.586 0.883 0.586 1.414s-0.21 1.039-0.585 1.414z"></path>
</symbol>
<symbol id="icon-pin" viewBox="0 0 32 32">
<path d="M29.415 10.171l-7.586-7.585c-0.186-0.186-0.406-0.333-0.649-0.434s-0.503-0.152-0.766-0.152c-0.263 0-0.523 0.052-0.765 0.152s-0.463 0.248-0.649 0.434l-6.704 6.725c-1.332-0.418-4.375-0.921-7.55 1.643-0.219 0.176-0.398 0.396-0.526 0.646s-0.202 0.524-0.217 0.804c-0.015 0.28 0.029 0.561 0.129 0.823s0.255 0.5 0.453 0.699l6.040 6.037-5.332 5.329c-0.188 0.188-0.293 0.442-0.293 0.707s0.105 0.52 0.293 0.708 0.442 0.293 0.707 0.293c0.265 0 0.52-0.105 0.707-0.293l5.329-5.333 6.036 6.036c0.186 0.186 0.406 0.334 0.649 0.435s0.503 0.153 0.766 0.153c0.047 0 0.094 0 0.141 0 0.285-0.020 0.563-0.101 0.814-0.237s0.47-0.326 0.641-0.554c2.455-3.262 2.219-5.915 1.649-7.5l6.684-6.709c0.186-0.186 0.333-0.406 0.433-0.649s0.152-0.503 0.152-0.766c0-0.263-0.052-0.523-0.153-0.765s-0.248-0.463-0.434-0.649zM28 11.586l-7.159 7.183c-0.148 0.148-0.245 0.339-0.279 0.546s-0.001 0.419 0.092 0.606c1.183 2.366-0.225 4.824-1.167 6.077l-13.488-13.489c1.51-1.217 2.955-1.539 4.060-1.539 0.701-0.010 1.397 0.128 2.041 0.404 0.188 0.094 0.401 0.127 0.609 0.093s0.399-0.132 0.548-0.281l7.157-7.186 7.585 7.586z"></path>
</symbol>
<symbol id="icon-arrow-down" viewBox="0 0 32 32">
<path d="M27.065 13.060l-10 10c-0.139 0.14-0.305 0.251-0.487 0.327s-0.378 0.115-0.575 0.115c-0.197 0-0.393-0.039-0.575-0.115s-0.348-0.187-0.487-0.327l-10-10c-0.282-0.282-0.44-0.664-0.44-1.063s0.158-0.781 0.44-1.063c0.282-0.282 0.664-0.44 1.063-0.44s0.781 0.158 1.063 0.44l8.939 8.939 8.939-8.94c0.282-0.282 0.664-0.44 1.063-0.44s0.781 0.158 1.062 0.44 0.44 0.664 0.44 1.063c0 0.399-0.158 0.781-0.44 1.063l-0.002 0.001z"></path>
</symbol>
<symbol id="icon-calendar" viewBox="0 0 32 32">
<path d="M26 4h-3v-1c0-0.265-0.105-0.52-0.293-0.707s-0.442-0.293-0.707-0.293-0.52 0.105-0.707 0.293c-0.187 0.188-0.293 0.442-0.293 0.707v1h-10v-1c0-0.265-0.105-0.52-0.293-0.707s-0.442-0.293-0.707-0.293c-0.265 0-0.52 0.105-0.707 0.293s-0.293 0.442-0.293 0.707v1h-3c-0.53 0-1.039 0.211-1.414 0.586s-0.586 0.884-0.586 1.414v20c0 0.53 0.211 1.039 0.586 1.414s0.884 0.586 1.414 0.586h20c0.53 0 1.039-0.211 1.414-0.586s0.586-0.884 0.586-1.414v-20c0-0.53-0.211-1.039-0.586-1.414s-0.884-0.586-1.414-0.586zM9 6v1c0 0.265 0.105 0.52 0.293 0.707s0.442 0.293 0.707 0.293c0.265 0 0.52-0.105 0.707-0.293s0.293-0.442 0.293-0.707v-1h10v1c0 0.265 0.105 0.52 0.293 0.707s0.442 0.293 0.707 0.293 0.52-0.105 0.707-0.293c0.187-0.188 0.293-0.442 0.293-0.707v-1h3v4h-20v-4h3zM26 26h-20v-14h20v14z"></path>
</symbol>
<symbol id="icon-plus" viewBox="0 0 32 32">
<path d="M28.5 16c0 0.398-0.158 0.779-0.439 1.061s-0.663 0.439-1.061 0.439h-9.5v9.5c0 0.398-0.158 0.779-0.439 1.061s-0.663 0.439-1.061 0.439-0.779-0.158-1.061-0.439c-0.281-0.281-0.439-0.663-0.439-1.061v-9.5h-9.5c-0.398 0-0.779-0.158-1.061-0.439s-0.439-0.663-0.439-1.061c0-0.398 0.158-0.779 0.439-1.061s0.663-0.439 1.061-0.439h9.5v-9.5c0-0.398 0.158-0.779 0.439-1.061s0.663-0.439 1.061-0.439c0.398 0 0.779 0.158 1.061 0.439s0.439 0.663 0.439 1.061v9.5h9.5c0.398 0 0.779 0.158 1.061 0.439s0.439 0.663 0.439 1.061z"></path>
</symbol>
<symbol id="icon-phone-slash" viewBox="0 0 32 32">
<path d="M26.736 26.327c0.090 0.097 0.16 0.211 0.206 0.335s0.067 0.256 0.061 0.388c-0.005 0.132-0.037 0.262-0.093 0.382s-0.135 0.227-0.233 0.316c-0.098 0.089-0.212 0.158-0.337 0.202s-0.257 0.064-0.389 0.057c-0.132-0.007-0.262-0.040-0.381-0.098s-0.226-0.138-0.314-0.237l-11.314-12.446c-0.362 0.079-0.72 0.179-1.070 0.3l-0.738 3.689c-0.065 0.326-0.211 0.631-0.424 0.887s-0.486 0.455-0.795 0.578l-0.036 0.014-6.125 2.171c-0.4 0.155-0.84 0.177-1.253 0.063s-0.78-0.358-1.044-0.696c-2.154-2.776-1.913-6.46 0.586-8.959 1.623-1.624 3.546-2.917 5.664-3.805l-3.449-3.795c-0.090-0.097-0.16-0.211-0.206-0.335s-0.067-0.256-0.061-0.388c0.006-0.132 0.037-0.262 0.093-0.382s0.135-0.227 0.233-0.316c0.098-0.089 0.213-0.158 0.337-0.202s0.257-0.064 0.389-0.056c0.132 0.007 0.262 0.040 0.381 0.098s0.226 0.138 0.314 0.237l19.997 22zM28.946 13.272c-3.607-3.609-8.687-5.52-13.936-5.25-0.189 0.010-0.371 0.073-0.526 0.183s-0.275 0.26-0.347 0.435c-0.072 0.175-0.093 0.367-0.060 0.553s0.118 0.36 0.245 0.5l11.351 12.488c0.111 0.122 0.25 0.215 0.405 0.27l1.156 0.41c0.4 0.155 0.84 0.177 1.253 0.063s0.78-0.358 1.044-0.696c2.154-2.773 1.912-6.456-0.586-8.955z"></path>
</symbol>
<symbol id="icon-pause" viewBox="0 0 32 32">
<path d="M27 6v20c0 0.53-0.211 1.039-0.586 1.414s-0.884 0.586-1.414 0.586h-5c-0.53 0-1.039-0.211-1.414-0.586s-0.586-0.884-0.586-1.414v-20c0-0.53 0.211-1.039 0.586-1.414s0.884-0.586 1.414-0.586h5c0.53 0 1.039 0.211 1.414 0.586s0.586 0.884 0.586 1.414zM12 4h-5c-0.53 0-1.039 0.211-1.414 0.586s-0.586 0.884-0.586 1.414v20c0 0.53 0.211 1.039 0.586 1.414s0.884 0.586 1.414 0.586h5c0.53 0 1.039-0.211 1.414-0.586s0.586-0.884 0.586-1.414v-20c0-0.53-0.211-1.039-0.586-1.414s-0.884-0.586-1.414-0.586z"></path>
</symbol>
<symbol id="icon-mic-slash" viewBox="0 0 32 32">
<path d="M26.673 27.74c-0.196 0.178-0.455 0.272-0.72 0.259s-0.514-0.13-0.692-0.326l-3.307-3.638c-1.447 1.074-3.159 1.735-4.953 1.914v3.051c0 0.265-0.105 0.52-0.293 0.707s-0.442 0.293-0.707 0.293c-0.265 0-0.52-0.105-0.707-0.293s-0.293-0.442-0.293-0.707v-3.050c-2.465-0.251-4.75-1.407-6.413-3.245s-2.584-4.227-2.587-6.705c0-0.265 0.105-0.52 0.293-0.707s0.442-0.293 0.707-0.293c0.265 0 0.52 0.105 0.707 0.293s0.293 0.442 0.293 0.707c0 1.464 0.402 2.901 1.163 4.153s1.85 2.27 3.149 2.946 2.76 0.981 4.221 0.883c1.461-0.098 2.868-0.594 4.066-1.436l-1.36-1.5c-0.906 0.581-1.952 0.908-3.028 0.946s-2.142-0.214-3.087-0.73c-0.945-0.516-1.733-1.277-2.283-2.202s-0.84-1.982-0.841-3.058v-5.114l-4.74-5.214c-0.090-0.097-0.16-0.211-0.206-0.335s-0.067-0.256-0.061-0.388c0.006-0.132 0.037-0.262 0.093-0.382s0.135-0.227 0.233-0.316c0.098-0.089 0.213-0.158 0.337-0.202s0.257-0.064 0.389-0.056c0.132 0.007 0.262 0.040 0.381 0.098s0.226 0.138 0.314 0.237l20 22c0.178 0.196 0.271 0.455 0.259 0.72s-0.13 0.514-0.326 0.692zM20.26 16.226c0.136 0.149 0.314 0.254 0.51 0.301s0.402 0.032 0.591-0.040c0.188-0.073 0.35-0.201 0.464-0.367s0.175-0.364 0.175-0.565v-7.554c0-1.306-0.426-2.576-1.213-3.617s-1.892-1.798-3.148-2.155-2.594-0.294-3.811 0.179c-1.217 0.473-2.247 1.329-2.933 2.44-0.115 0.184-0.167 0.401-0.148 0.617s0.108 0.42 0.253 0.582l9.26 10.18zM24.023 20.205c0.122 0.048 0.253 0.071 0.384 0.068s0.261-0.031 0.381-0.084c0.12-0.053 0.229-0.129 0.32-0.224s0.162-0.207 0.21-0.329c0.453-1.159 0.684-2.392 0.682-3.636 0-0.265-0.105-0.52-0.293-0.707s-0.442-0.293-0.707-0.293-0.52 0.105-0.707 0.293c-0.188 0.188-0.293 0.442-0.293 0.707 0.002 0.995-0.183 1.982-0.545 2.909-0.048 0.122-0.071 0.253-0.069 0.384s0.031 0.261 0.084 0.381c0.053 0.12 0.129 0.229 0.223 0.32s0.207 0.163 0.329 0.21z"></path>
</symbol>
<symbol id="icon-letter-B" viewBox="0 0 32 32">
<path d="M24 19.75c0 1.392-0.553 2.728-1.538 3.712s-2.32 1.538-3.712 1.538h-7.75c-0.265 0-0.52-0.105-0.707-0.293s-0.293-0.442-0.293-0.707v-16c0-0.265 0.105-0.52 0.293-0.707s0.442-0.293 0.707-0.293h7.25c0.956 0.001 1.89 0.291 2.679 0.831s1.396 1.307 1.743 2.198c0.346 0.891 0.416 1.867 0.199 2.798s-0.71 1.776-1.415 2.422c0.776 0.467 1.418 1.127 1.864 1.915s0.68 1.679 0.68 2.585zM12 14.5h6.25c0.729 0 1.429-0.29 1.945-0.805s0.805-1.215 0.805-1.945-0.29-1.429-0.805-1.945c-0.516-0.516-1.215-0.805-1.945-0.805h-6.25v5.5zM22 19.75c0-0.427-0.084-0.849-0.247-1.244s-0.403-0.753-0.705-1.054c-0.302-0.302-0.66-0.541-1.054-0.704s-0.817-0.247-1.244-0.247h-6.75v6.5h6.75c0.427 0 0.849-0.084 1.244-0.247s0.753-0.403 1.054-0.705c0.302-0.302 0.541-0.66 0.705-1.054s0.247-0.817 0.247-1.244z"></path>
</symbol>
<symbol id="icon-stack" viewBox="0 0 32 32">
<path d="M27.003 6h-22c-0.53 0-1.039 0.211-1.414 0.586s-0.586 0.884-0.586 1.414l0 18c0 0-0.003-0.086-0.004 0h1.003c0 0 0.708-0 1 0 0.47-0.001 1 0 1 0 0.006-0.004 2 0 2 0h19c0.53 0 1.039-0.211 1.414-0.586s0.586-0.884 0.586-1.414v-16c0-0.53-0.211-1.039-0.586-1.414s-0.884-0.586-1.414-0.586zM27.003 24h-16.687c-0.471-0-1.313 0-1.313 0h-4v-16h22v16z"></path>
<path fill="none" stroke="#343330" style="stroke: var(--color1, #343330)" stroke-linejoin="miter" stroke-linecap="butt" stroke-miterlimit="4" stroke-width="2" d="M5 13h22M27 19h-23"></path>
</symbol>
<symbol id="icon-clock" viewBox="0 0 32 32">
<path d="M16 3c-2.571 0-5.085 0.762-7.222 2.191s-3.804 3.459-4.788 5.834c-0.984 2.375-1.241 4.989-0.74 7.511s1.74 4.838 3.558 6.656 4.134 3.056 6.656 3.558c2.522 0.502 5.136 0.244 7.511-0.74s4.406-2.65 5.834-4.788c1.428-2.138 2.191-4.651 2.191-7.222-0.004-3.447-1.374-6.751-3.812-9.188s-5.742-3.808-9.188-3.812zM16 27c-2.176 0-4.302-0.645-6.111-1.854s-3.219-2.927-4.051-4.937c-0.833-2.010-1.050-4.222-0.626-6.356s1.472-4.094 3.010-5.632c1.538-1.538 3.498-2.586 5.632-3.010s4.346-0.207 6.356 0.626c2.010 0.833 3.728 2.242 4.937 4.051s1.854 3.936 1.854 6.111c-0.003 2.916-1.163 5.712-3.225 7.775s-4.858 3.222-7.775 3.225zM24 16c0 0.265-0.105 0.52-0.293 0.707s-0.442 0.293-0.707 0.293h-7c-0.265 0-0.52-0.105-0.707-0.293s-0.293-0.442-0.293-0.707v-7c0-0.265 0.105-0.52 0.293-0.707s0.442-0.293 0.707-0.293c0.265 0 0.52 0.105 0.707 0.293s0.293 0.442 0.293 0.707v6h6c0.265 0 0.52 0.105 0.707 0.293s0.293 0.442 0.293 0.707z"></path>
</symbol>
<symbol id="icon-online" viewBox="0 0 32 32">
<path d="M16 3c-2.571 0-5.085 0.762-7.222 2.191s-3.804 3.459-4.788 5.834c-0.984 2.375-1.241 4.989-0.74 7.511s1.74 4.838 3.558 6.656 4.134 3.056 6.656 3.558c2.522 0.502 5.136 0.244 7.511-0.74s4.406-2.65 5.834-4.788c1.428-2.138 2.191-4.651 2.191-7.222-0.004-3.447-1.374-6.751-3.812-9.188s-5.742-3.808-9.188-3.812zM16 27c-2.176 0-4.302-0.645-6.111-1.854s-3.219-2.927-4.051-4.937c-0.833-2.010-1.050-4.222-0.626-6.356s1.472-4.094 3.010-5.632c1.538-1.538 3.498-2.586 5.632-3.010s4.346-0.207 6.356 0.626c2.010 0.833 3.728 2.242 4.937 4.051s1.854 3.936 1.854 6.111c-0.003 2.916-1.163 5.712-3.225 7.775s-4.858 3.222-7.775 3.225z"></path>
</symbol>
<symbol id="icon-search" viewBox="0 0 32 32">
<path d="M28.704 27.293l-6.259-6.258c1.814-2.178 2.719-4.971 2.525-7.799s-1.469-5.472-3.562-7.383c-2.093-1.911-4.843-2.942-7.676-2.877s-5.533 1.219-7.538 3.223c-2.004 2.004-3.159 4.704-3.223 7.538s0.966 5.583 2.877 7.676c1.911 2.093 4.556 3.369 7.383 3.562s5.621-0.712 7.799-2.526l6.257 6.259c0.093 0.093 0.203 0.167 0.325 0.217s0.252 0.076 0.383 0.076 0.261-0.026 0.383-0.076c0.121-0.050 0.232-0.124 0.325-0.217s0.167-0.203 0.217-0.325c0.050-0.121 0.076-0.252 0.076-0.383s-0.026-0.261-0.076-0.383c-0.050-0.121-0.124-0.232-0.217-0.325zM4.996 14c0-1.78 0.528-3.52 1.517-5s2.395-2.634 4.039-3.315c1.645-0.681 3.454-0.859 5.2-0.512s3.349 1.204 4.608 2.463c1.259 1.259 2.116 2.862 2.463 4.608s0.169 3.555-0.512 5.2c-0.681 1.645-1.835 3.050-3.315 4.039s-3.22 1.517-5 1.517c-2.386-0.003-4.674-0.952-6.361-2.639s-2.636-3.975-2.639-6.361z"></path>
</symbol>
<symbol id="icon-star" viewBox="0 0 32 32">
<path d="M29.898 12.161c-0.121-0.373-0.349-0.703-0.656-0.947s-0.679-0.393-1.070-0.428l-7.424-0.64-2.91-6.92c-0.151-0.363-0.407-0.673-0.734-0.891s-0.712-0.335-1.106-0.335c-0.393 0-0.778 0.116-1.106 0.335s-0.583 0.528-0.734 0.891l-2.901 6.92-7.433 0.644c-0.392 0.033-0.766 0.181-1.075 0.426s-0.538 0.575-0.66 0.95c-0.122 0.375-0.13 0.777-0.024 1.156s0.322 0.719 0.62 0.976l5.639 4.928-1.69 7.317c-0.089 0.383-0.064 0.784 0.073 1.152s0.38 0.688 0.698 0.92c0.318 0.231 0.697 0.364 1.090 0.381s0.782-0.082 1.119-0.285l6.375-3.875 6.389 3.875c0.337 0.203 0.726 0.302 1.119 0.285s0.772-0.15 1.090-0.381c0.318-0.231 0.561-0.551 0.698-0.92s0.163-0.769 0.073-1.152l-1.689-7.325 5.637-4.92c0.298-0.258 0.513-0.599 0.619-0.979s0.096-0.783-0.027-1.158zM27.996 12.786l-5.638 4.92c-0.274 0.239-0.478 0.548-0.59 0.894s-0.127 0.716-0.045 1.070l1.694 7.33-6.384-3.875c-0.311-0.19-0.669-0.29-1.034-0.29s-0.722 0.1-1.034 0.29l-6.375 3.875 1.683-7.325c0.083-0.354 0.067-0.724-0.045-1.070s-0.316-0.655-0.59-0.894l-5.64-4.918c-0-0.004-0-0.008 0-0.011l7.43-0.643c0.363-0.032 0.71-0.162 1.004-0.377s0.524-0.506 0.665-0.842l2.901-6.911 2.9 6.911c0.141 0.336 0.371 0.627 0.665 0.842s0.641 0.345 1.004 0.377l7.431 0.643c0 0 0 0.008 0 0.009l-0.002-0.005z"></path>
</symbol>
<symbol id="icon-mark-deny" viewBox="0 0 32 32">
<path d="M30.41 8.53l-3-2.945c-0.375-0.373-0.882-0.583-1.411-0.583s-1.036 0.21-1.411 0.583l-11.588 11.415-0.014-0.014-4.58-4.409c-0.376-0.372-0.883-0.58-1.412-0.578s-1.035 0.212-1.409 0.586l-3 3c-0.374 0.375-0.585 0.883-0.585 1.413s0.21 1.038 0.585 1.413l8.953 9c0.186 0.186 0.406 0.333 0.649 0.434s0.503 0.152 0.765 0.152 0.523-0.052 0.765-0.152c0.243-0.1 0.463-0.248 0.649-0.434l16.050-16.047c0.186-0.186 0.334-0.407 0.434-0.651s0.152-0.504 0.151-0.767c-0.001-0.263-0.053-0.524-0.155-0.767s-0.25-0.463-0.437-0.649zM12.952 26l-8.953-9 3-3 0.014 0.014 4.58 4.409c0.375 0.371 0.88 0.579 1.408 0.579s1.033-0.208 1.408-0.579l11.599-11.422 2.992 2.95-16.047 16.050z"></path>
<path fill="none" stroke="#46CB4B" style="stroke: var(--color2, #46CB4B)" stroke-linejoin="miter" stroke-linecap="round" stroke-miterlimit="4" stroke-width="2" d="M6 4l22 24"></path>
</symbol>
<symbol id="icon-mark-approve" viewBox="0 0 32 32">
<path d="M30.41 8.53l-3-2.945c-0.375-0.373-0.882-0.583-1.411-0.583s-1.036 0.21-1.411 0.583l-11.588 11.415-0.014-0.014-4.58-4.409c-0.376-0.372-0.883-0.58-1.412-0.578s-1.035 0.212-1.409 0.586l-3 3c-0.374 0.375-0.585 0.883-0.585 1.413s0.21 1.038 0.585 1.413l8.953 9c0.186 0.186 0.406 0.333 0.649 0.434s0.503 0.152 0.765 0.152 0.523-0.052 0.765-0.152c0.243-0.1 0.463-0.248 0.649-0.434l16.050-16.047c0.186-0.186 0.334-0.407 0.434-0.651s0.152-0.504 0.151-0.767c-0.001-0.263-0.053-0.524-0.155-0.767s-0.25-0.463-0.437-0.649zM12.952 26l-8.953-9 3-3 0.014 0.014 4.58 4.409c0.375 0.371 0.88 0.579 1.408 0.579s1.033-0.208 1.408-0.579l11.599-11.422 2.992 2.95-16.047 16.050z"></path>
</symbol>
<symbol id="icon-back-arrow" viewBox="0 0 32 32">
<path d="M29 23c0 0.265-0.105 0.52-0.293 0.707s-0.442 0.293-0.707 0.293-0.52-0.105-0.707-0.293c-0.187-0.188-0.293-0.442-0.293-0.707-0-2.175-0.646-4.302-1.854-6.111s-2.927-3.218-4.936-4.051c-2.010-0.832-4.221-1.050-6.355-0.626s-4.093 1.472-5.632 3.010l-2.797 2.777h5.575c0.265 0 0.52 0.105 0.707 0.293s0.293 0.442 0.293 0.707c0 0.265-0.105 0.52-0.293 0.707s-0.442 0.293-0.707 0.293h-8c-0.265 0-0.52-0.105-0.707-0.293s-0.293-0.442-0.293-0.707v-8c0-0.265 0.105-0.52 0.293-0.707s0.442-0.293 0.707-0.293c0.265 0 0.52 0.105 0.707 0.293s0.293 0.442 0.293 0.707v5.596l2.81-2.791c1.818-1.817 4.135-3.055 6.656-3.556s5.135-0.243 7.51 0.741c2.375 0.984 4.405 2.65 5.833 4.788s2.19 4.651 2.19 7.222z"></path>
</symbol>
<symbol id="icon-trash" viewBox="0 0 32 32">
<path d="M27 6h-5v-1c0-0.796-0.316-1.559-0.879-2.121s-1.326-0.879-2.121-0.879h-6c-0.796 0-1.559 0.316-2.121 0.879s-0.879 1.326-0.879 2.121v1h-5c-0.265 0-0.52 0.105-0.707 0.293s-0.293 0.442-0.293 0.707c0 0.265 0.105 0.52 0.293 0.707s0.442 0.293 0.707 0.293h1v18c0 0.53 0.211 1.039 0.586 1.414s0.884 0.586 1.414 0.586h16c0.53 0 1.039-0.211 1.414-0.586s0.586-0.884 0.586-1.414v-18h1c0.265 0 0.52-0.105 0.707-0.293s0.293-0.442 0.293-0.707-0.105-0.52-0.293-0.707c-0.188-0.188-0.442-0.293-0.707-0.293zM12 5c0-0.265 0.105-0.52 0.293-0.707s0.442-0.293 0.707-0.293h6c0.265 0 0.52 0.105 0.707 0.293s0.293 0.442 0.293 0.707v1h-8v-1zM24 26h-16v-18h16v18zM14 13v8c0 0.265-0.105 0.52-0.293 0.707s-0.442 0.293-0.707 0.293-0.52-0.105-0.707-0.293c-0.188-0.188-0.293-0.442-0.293-0.707v-8c0-0.265 0.105-0.52 0.293-0.707s0.442-0.293 0.707-0.293c0.265 0 0.52 0.105 0.707 0.293s0.293 0.442 0.293 0.707zM20 13v8c0 0.265-0.105 0.52-0.293 0.707s-0.442 0.293-0.707 0.293-0.52-0.105-0.707-0.293c-0.188-0.188-0.293-0.442-0.293-0.707v-8c0-0.265 0.105-0.52 0.293-0.707s0.442-0.293 0.707-0.293c0.265 0 0.52 0.105 0.707 0.293s0.293 0.442 0.293 0.707z"></path>
</symbol>
<symbol id="icon-windows" viewBox="0 0 32 32">
<path fill="#575757" style="fill: var(--color3, #575757)" d="M27 5h-18c-0.53 0-1.039 0.211-1.414 0.586s-0.586 0.884-0.586 1.414v2h-2c-0.53 0-1.039 0.211-1.414 0.586s-0.586 0.884-0.586 1.414v14c0 0.53 0.211 1.039 0.586 1.414s0.884 0.586 1.414 0.586h18c0.53 0 1.039-0.211 1.414-0.586s0.586-0.884 0.586-1.414v-2h2c0.53 0 1.039-0.211 1.414-0.586s0.586-0.884 0.586-1.414v-14c0-0.53-0.211-1.039-0.586-1.414s-0.884-0.586-1.414-0.586zM23 11v2h-18v-2h18zM23 25h-18v-10h18v10zM27 21h-2v-10c0-0.53-0.211-1.039-0.586-1.414s-0.884-0.586-1.414-0.586h-14v-2h18v14z"></path>
</symbol>
<symbol id="icon-dollar-sign" viewBox="0 0 32 32">
<path fill="#575757" style="fill: var(--color3, #575757)" d="M19 15h-2v-8h1c1.061 0 2.078 0.421 2.828 1.172s1.172 1.768 1.172 2.828c0 0.265 0.105 0.52 0.293 0.707s0.442 0.293 0.707 0.293 0.52-0.105 0.707-0.293c0.187-0.188 0.293-0.442 0.293-0.707-0.002-1.591-0.634-3.116-1.759-4.241s-2.65-1.758-4.241-1.759h-1v-2c0-0.265-0.105-0.52-0.293-0.707s-0.442-0.293-0.707-0.293c-0.265 0-0.52 0.105-0.707 0.293s-0.293 0.442-0.293 0.707v2h-1c-1.591 0-3.117 0.632-4.243 1.757s-1.757 2.651-1.757 4.243c0 1.591 0.632 3.117 1.757 4.243s2.651 1.757 4.243 1.757h1v8h-2c-1.061 0-2.078-0.421-2.828-1.172s-1.172-1.768-1.172-2.828c0-0.265-0.105-0.52-0.293-0.707s-0.442-0.293-0.707-0.293-0.52 0.105-0.707 0.293c-0.188 0.188-0.293 0.442-0.293 0.707 0.002 1.591 0.634 3.116 1.759 4.241s2.65 1.758 4.241 1.759h2v2c0 0.265 0.105 0.52 0.293 0.707s0.442 0.293 0.707 0.293 0.52-0.105 0.707-0.293c0.188-0.188 0.293-0.442 0.293-0.707v-2h2c1.591 0 3.117-0.632 4.243-1.757s1.757-2.651 1.757-4.243c0-1.591-0.632-3.117-1.757-4.243s-2.651-1.757-4.243-1.757zM14 15c-1.061 0-2.078-0.421-2.828-1.172s-1.172-1.768-1.172-2.828c0-1.061 0.421-2.078 1.172-2.828s1.768-1.172 2.828-1.172h1v8h-1zM19 25h-2v-8h2c1.061 0 2.078 0.421 2.828 1.172s1.172 1.768 1.172 2.828c0 1.061-0.421 2.078-1.172 2.828s-1.768 1.172-2.828 1.172z"></path>
</symbol>
<symbol id="icon-call" viewBox="0 0 32 32">
<path fill="#575757" style="fill: var(--color3, #575757)" d="M19.034 4.741c0.034-0.127 0.093-0.246 0.172-0.35s0.18-0.192 0.293-0.257c0.114-0.066 0.239-0.108 0.37-0.125s0.263-0.008 0.39 0.026c1.854 0.484 3.545 1.453 4.9 2.808s2.324 3.046 2.807 4.9c0.034 0.127 0.043 0.259 0.026 0.389s-0.060 0.256-0.125 0.37c-0.066 0.114-0.153 0.213-0.258 0.293s-0.223 0.139-0.35 0.172c-0.085 0.022-0.171 0.034-0.259 0.034-0.22 0-0.435-0.073-0.609-0.207s-0.3-0.322-0.357-0.535c-0.395-1.513-1.185-2.894-2.291-4s-2.487-1.897-4-2.291c-0.127-0.034-0.246-0.092-0.351-0.172s-0.192-0.18-0.258-0.293c-0.066-0.114-0.109-0.239-0.126-0.37s-0.009-0.263 0.025-0.39zM18.743 9.966c1.724 0.46 2.831 1.568 3.291 3.291 0.057 0.213 0.182 0.401 0.357 0.535s0.389 0.207 0.609 0.207c0.087-0 0.174-0.012 0.259-0.034 0.127-0.034 0.246-0.093 0.35-0.172s0.192-0.18 0.258-0.293c0.066-0.114 0.108-0.239 0.125-0.37s0.008-0.263-0.026-0.389c-0.64-2.395-2.312-4.067-4.707-4.707-0.127-0.034-0.259-0.042-0.389-0.025s-0.256 0.060-0.369 0.126c-0.114 0.066-0.213 0.153-0.293 0.258s-0.138 0.223-0.172 0.35c-0.034 0.127-0.042 0.259-0.025 0.389s0.060 0.256 0.126 0.369c0.066 0.114 0.153 0.213 0.258 0.293s0.223 0.138 0.35 0.172zM28.985 21.885c-0.223 1.694-1.055 3.248-2.34 4.374s-2.936 1.744-4.645 1.741c-9.925 0-18-8.075-18-18-0.003-1.708 0.616-3.359 1.741-4.645s2.68-2.117 4.374-2.34c0.428-0.052 0.862 0.035 1.236 0.25s0.669 0.544 0.841 0.94l2.64 5.894v0.015c0.131 0.303 0.186 0.634 0.158 0.963s-0.136 0.646-0.317 0.923c-0.023 0.034-0.046 0.065-0.071 0.096l-2.603 3.085c0.936 1.902 2.926 3.875 4.854 4.814l3.043-2.589c0.030-0.025 0.061-0.049 0.094-0.070 0.277-0.184 0.595-0.297 0.926-0.328s0.665 0.022 0.97 0.153l0.016 0.008 5.889 2.639c0.397 0.171 0.727 0.466 0.942 0.84s0.303 0.809 0.251 1.237zM27 21.635c0 0-0.009 0-0.014 0l-5.875-2.631-3.044 2.589c-0.030 0.025-0.060 0.048-0.093 0.070-0.288 0.192-0.62 0.306-0.966 0.331s-0.691-0.040-1.003-0.188c-2.341-1.131-4.675-3.448-5.808-5.764-0.15-0.31-0.217-0.654-0.195-0.998s0.132-0.676 0.32-0.965c0.021-0.034 0.045-0.066 0.071-0.096l2.605-3.089-2.625-5.875c-0.001-0.005-0.001-0.010 0-0.015-1.212 0.158-2.325 0.753-3.13 1.672s-1.248 2.101-1.245 3.324c0.005 4.242 1.692 8.309 4.691 11.309s7.067 4.687 11.309 4.691c1.222 0.004 2.403-0.437 3.323-1.24s1.516-1.915 1.677-3.126v0.001z"></path>
</symbol>
<symbol id="icon-message" viewBox="0 0 32 32">
<path fill="#575757" style="fill: var(--color3, #575757)" d="M22.708 13.293c0.093 0.093 0.167 0.203 0.217 0.325s0.076 0.252 0.076 0.383-0.026 0.262-0.076 0.383c-0.050 0.121-0.124 0.232-0.217 0.325l-4 4c-0.093 0.093-0.203 0.167-0.325 0.217s-0.252 0.076-0.383 0.076c-0.131 0-0.262-0.026-0.383-0.076s-0.232-0.124-0.325-0.217l-3.293-3.294-3.293 3.294c-0.188 0.188-0.442 0.293-0.707 0.293s-0.52-0.105-0.707-0.293c-0.188-0.188-0.293-0.442-0.293-0.707s0.105-0.52 0.293-0.707l4-4c0.093-0.093 0.203-0.167 0.325-0.217s0.252-0.076 0.383-0.076c0.131 0 0.262 0.026 0.383 0.076s0.232 0.124 0.325 0.217l3.293 3.294 3.292-3.294c0.093-0.093 0.203-0.167 0.325-0.217s0.252-0.076 0.383-0.076c0.131 0 0.262 0.026 0.383 0.076s0.232 0.124 0.325 0.217zM29 16.001c0 2.244-0.58 4.451-1.685 6.404s-2.697 3.587-4.621 4.743-4.115 1.793-6.358 1.851c-2.244 0.058-4.464-0.466-6.445-1.521l-4.256 1.419c-0.352 0.117-0.731 0.135-1.092 0.049s-0.692-0.27-0.955-0.532c-0.263-0.263-0.447-0.593-0.532-0.955s-0.068-0.74 0.049-1.092l1.419-4.256c-0.927-1.744-1.445-3.675-1.514-5.649s0.312-3.937 1.115-5.741c0.803-1.804 2.006-3.402 3.519-4.671s3.294-2.178 5.21-2.656c1.916-0.478 3.916-0.514 5.847-0.104s3.745 1.255 5.301 2.47c1.556 1.215 2.816 2.769 3.682 4.544s1.317 3.723 1.318 5.698zM27 16.001c-0-1.687-0.389-3.352-1.136-4.865s-1.832-2.834-3.171-3.861-2.896-1.732-4.551-2.060c-1.655-0.329-3.364-0.272-4.993 0.165s-3.137 1.244-4.405 2.357c-1.268 1.113-2.263 2.503-2.908 4.062s-0.923 3.246-0.812 4.93c0.111 1.684 0.608 3.319 1.452 4.78 0.071 0.123 0.115 0.259 0.129 0.4s-0.002 0.283-0.047 0.418l-1.559 4.675 4.675-1.56c0.134-0.045 0.277-0.060 0.418-0.046s0.277 0.059 0.4 0.13c1.672 0.967 3.57 1.477 5.501 1.478s3.83-0.507 5.503-1.472c1.673-0.965 3.063-2.354 4.029-4.027s1.475-3.571 1.474-5.502z"></path>
</symbol>
<symbol id="icon-call-out" viewBox="0 0 32 32">
<path d="M19.293 12.707c-0.093-0.093-0.167-0.203-0.217-0.325s-0.076-0.252-0.076-0.383c0-0.131 0.026-0.262 0.076-0.383s0.124-0.232 0.217-0.325l4.294-4.293h-2.586c-0.265 0-0.52-0.105-0.707-0.293s-0.293-0.442-0.293-0.707 0.105-0.52 0.293-0.707c0.187-0.188 0.442-0.293 0.707-0.293h5c0.265 0 0.52 0.105 0.707 0.293s0.293 0.442 0.293 0.707v5c0 0.265-0.105 0.52-0.293 0.707s-0.442 0.293-0.707 0.293-0.52-0.105-0.707-0.293c-0.188-0.188-0.293-0.442-0.293-0.707v-2.586l-4.292 4.294c-0.093 0.093-0.203 0.167-0.325 0.217s-0.252 0.076-0.383 0.076c-0.131 0-0.262-0.026-0.383-0.076s-0.232-0.124-0.325-0.217zM28.985 21.885c-0.223 1.694-1.055 3.249-2.34 4.374s-2.936 1.744-4.645 1.741c-9.925 0-18-8.075-18-18-0.003-1.708 0.616-3.359 1.741-4.645s2.68-2.117 4.374-2.34c0.428-0.052 0.862 0.035 1.236 0.249s0.67 0.544 0.841 0.939l2.64 5.895v0.015c0.131 0.303 0.186 0.634 0.158 0.963s-0.136 0.646-0.317 0.923c-0.023 0.034-0.046 0.065-0.071 0.096l-2.603 3.085c0.936 1.902 2.926 3.875 4.854 4.814l3.043-2.589c0.030-0.025 0.061-0.048 0.094-0.070 0.276-0.185 0.595-0.298 0.926-0.329s0.665 0.022 0.97 0.154l0.016 0.008 5.889 2.639c0.397 0.171 0.727 0.466 0.942 0.84s0.303 0.808 0.251 1.237zM27 21.635c0 0-0.009 0-0.014 0l-5.875-2.633-3.044 2.59c-0.030 0.025-0.060 0.048-0.093 0.070-0.288 0.192-0.62 0.306-0.966 0.331s-0.691-0.040-1.003-0.189c-2.341-1.131-4.675-3.447-5.808-5.764-0.15-0.31-0.217-0.654-0.195-0.998s0.132-0.676 0.32-0.965c0.021-0.034 0.045-0.066 0.071-0.096l2.605-3.089-2.625-5.875c-0.001-0.005-0.001-0.010 0-0.015-1.212 0.158-2.325 0.753-3.13 1.672s-1.248 2.101-1.245 3.324c0.005 4.242 1.692 8.309 4.691 11.309s7.067 4.687 11.309 4.691c1.222 0.004 2.403-0.437 3.323-1.24s1.516-1.915 1.677-3.126v0.001z"></path>
</symbol>
<symbol id="icon-call-in" viewBox="0 0 32 32">
<path d="M19 12.001v-5c0-0.265 0.105-0.52 0.293-0.707s0.442-0.293 0.707-0.293c0.265 0 0.52 0.105 0.707 0.293s0.293 0.442 0.293 0.707v2.586l4.293-4.294c0.188-0.188 0.442-0.293 0.707-0.293s0.52 0.105 0.708 0.293c0.188 0.188 0.293 0.442 0.293 0.707s-0.105 0.52-0.293 0.707l-4.293 4.293h2.585c0.265 0 0.52 0.105 0.707 0.293s0.293 0.442 0.293 0.707-0.105 0.52-0.293 0.707c-0.188 0.188-0.442 0.293-0.707 0.293h-5c-0.265 0-0.52-0.105-0.707-0.293s-0.293-0.442-0.293-0.707zM28.985 21.886c-0.223 1.694-1.055 3.248-2.34 4.374s-2.936 1.744-4.645 1.741c-9.925 0-18-8.075-18-18-0.003-1.708 0.616-3.359 1.741-4.645s2.68-2.117 4.374-2.339c0.428-0.052 0.862 0.035 1.236 0.249s0.67 0.544 0.841 0.939l2.64 5.894v0.015c0.131 0.303 0.186 0.634 0.158 0.963s-0.136 0.646-0.317 0.923c-0.023 0.034-0.046 0.065-0.071 0.096l-2.602 3.085c0.936 1.902 2.926 3.875 4.854 4.814l3.043-2.589c0.030-0.025 0.061-0.048 0.094-0.070 0.277-0.184 0.595-0.297 0.926-0.328s0.665 0.022 0.97 0.153l0.016 0.008 5.889 2.639c0.397 0.171 0.727 0.466 0.942 0.84s0.303 0.809 0.251 1.237zM27 21.636c0 0-0.009 0-0.014 0l-5.875-2.631-3.044 2.589c-0.029 0.025-0.060 0.049-0.093 0.070-0.288 0.192-0.62 0.306-0.966 0.331s-0.691-0.040-1.003-0.188c-2.341-1.131-4.675-3.448-5.808-5.764-0.15-0.31-0.217-0.654-0.195-0.998s0.132-0.676 0.32-0.965c0.021-0.034 0.045-0.066 0.071-0.096l2.605-3.089-2.625-5.875c-0.001-0.005-0.001-0.010 0-0.015-1.212 0.158-2.325 0.753-3.13 1.672s-1.248 2.101-1.245 3.324c0.005 4.242 1.692 8.309 4.691 11.309s7.067 4.687 11.309 4.691c1.222 0.004 2.403-0.437 3.323-1.24s1.516-1.915 1.677-3.126v0.001z"></path>
</symbol>
<symbol id="icon-cross-light" viewBox="0 0 32 32">
<path d="M25.708 24.293c0.093 0.093 0.167 0.203 0.217 0.325s0.076 0.252 0.076 0.383-0.026 0.261-0.076 0.383c-0.050 0.121-0.124 0.232-0.217 0.325s-0.203 0.167-0.325 0.217c-0.121 0.050-0.251 0.076-0.383 0.076s-0.262-0.026-0.383-0.076c-0.121-0.050-0.232-0.124-0.325-0.217l-8.292-8.294-8.293 8.294c-0.188 0.188-0.442 0.293-0.707 0.293s-0.52-0.106-0.707-0.293c-0.188-0.188-0.293-0.442-0.293-0.707s0.105-0.52 0.293-0.708l8.294-8.292-8.294-8.293c-0.188-0.188-0.293-0.442-0.293-0.707s0.105-0.52 0.293-0.707c0.188-0.188 0.442-0.293 0.707-0.293s0.52 0.105 0.707 0.293l8.293 8.294 8.292-8.294c0.188-0.188 0.442-0.293 0.708-0.293s0.52 0.105 0.707 0.293c0.188 0.188 0.293 0.442 0.293 0.707s-0.106 0.52-0.293 0.707l-8.294 8.293 8.294 8.292z"></path>
</symbol>
<symbol id="icon-3-dots" viewBox="0 0 32 32">
<path d="M14 7.5c0-0.396 0.117-0.782 0.337-1.111s0.532-0.585 0.898-0.737c0.365-0.151 0.768-0.191 1.156-0.114s0.744 0.268 1.024 0.547c0.28 0.28 0.47 0.636 0.547 1.024s0.038 0.79-0.114 1.156c-0.151 0.365-0.408 0.678-0.737 0.898s-0.716 0.337-1.111 0.337c-0.53 0-1.039-0.211-1.414-0.586s-0.586-0.884-0.586-1.414zM16 14c-0.396 0-0.782 0.117-1.111 0.337s-0.585 0.532-0.737 0.898c-0.151 0.365-0.191 0.768-0.114 1.156s0.268 0.744 0.547 1.024c0.28 0.28 0.636 0.47 1.024 0.547s0.79 0.038 1.156-0.114c0.365-0.151 0.678-0.408 0.898-0.737s0.337-0.716 0.337-1.111c0-0.53-0.211-1.039-0.586-1.414s-0.884-0.586-1.414-0.586zM16 22.5c-0.396 0-0.782 0.117-1.111 0.337s-0.585 0.532-0.737 0.898c-0.151 0.365-0.191 0.768-0.114 1.156s0.268 0.744 0.547 1.024c0.28 0.28 0.636 0.47 1.024 0.547s0.79 0.038 1.156-0.114c0.365-0.151 0.678-0.408 0.898-0.737s0.337-0.716 0.337-1.111c0-0.53-0.211-1.039-0.586-1.414s-0.884-0.586-1.414-0.586z"></path>
</symbol>
<symbol id="icon-history" viewBox="0 0 32 32">
<path d="M17 10v5.434l4.515 2.709c0.227 0.137 0.391 0.358 0.456 0.615s0.023 0.53-0.113 0.757c-0.137 0.227-0.358 0.391-0.615 0.456s-0.53 0.024-0.757-0.113l-5-3c-0.148-0.089-0.27-0.215-0.355-0.365s-0.13-0.32-0.13-0.493v-6c0-0.265 0.105-0.52 0.293-0.707s0.442-0.293 0.707-0.293c0.265 0 0.52 0.105 0.707 0.293s0.293 0.442 0.293 0.707zM16 4c-1.578-0.004-3.14 0.305-4.597 0.909s-2.78 1.491-3.893 2.61c-0.909 0.92-1.716 1.805-2.51 2.731v-2.25c0-0.265-0.105-0.52-0.293-0.707s-0.442-0.293-0.707-0.293c-0.265 0-0.52 0.105-0.707 0.293s-0.293 0.442-0.293 0.707v5c0 0.265 0.105 0.52 0.293 0.707s0.442 0.293 0.707 0.293h5c0.265 0 0.52-0.105 0.707-0.293s0.293-0.442 0.293-0.707c0-0.265-0.105-0.52-0.293-0.707s-0.442-0.293-0.707-0.293h-2.875c0.894-1.053 1.784-2.044 2.799-3.071 1.39-1.39 3.158-2.339 5.085-2.73s3.925-0.205 5.746 0.534c1.821 0.739 3.384 1.998 4.494 3.621s1.717 3.536 1.745 5.501c0.028 1.965-0.523 3.895-1.585 5.549s-2.588 2.958-4.387 3.749c-1.799 0.791-3.792 1.035-5.728 0.701s-3.732-1.232-5.162-2.581c-0.096-0.090-0.208-0.161-0.331-0.208s-0.254-0.069-0.385-0.065c-0.131 0.004-0.261 0.033-0.381 0.087s-0.228 0.131-0.318 0.226c-0.090 0.095-0.161 0.208-0.208 0.331s-0.069 0.254-0.065 0.385c0.004 0.131 0.033 0.261 0.087 0.381s0.131 0.228 0.226 0.319c1.424 1.344 3.156 2.319 5.044 2.84s3.874 0.572 5.787 0.149 3.691-1.308 5.183-2.577c1.491-1.269 2.65-2.884 3.373-4.704s0.991-3.789 0.779-5.736c-0.212-1.947-0.898-3.812-1.997-5.433s-2.578-2.948-4.308-3.866c-1.73-0.918-3.658-1.398-5.617-1.4z"></path>
</symbol>
<symbol id="icon-pencil" viewBox="0 0 32 32">
<path d="M28.414 9.172l-5.585-5.586c-0.186-0.186-0.406-0.333-0.649-0.434s-0.503-0.152-0.765-0.152-0.523 0.052-0.765 0.152c-0.243 0.101-0.463 0.248-0.649 0.434l-15.414 15.415c-0.187 0.185-0.334 0.405-0.435 0.648s-0.152 0.503-0.151 0.766v5.586c0 0.53 0.211 1.039 0.586 1.414s0.884 0.586 1.414 0.586h5.586c0.263 0.001 0.523-0.051 0.766-0.151s0.463-0.249 0.648-0.435l15.414-15.414c0.186-0.186 0.333-0.406 0.434-0.649s0.152-0.503 0.152-0.765c0-0.263-0.052-0.523-0.152-0.765s-0.248-0.463-0.434-0.649zM11.586 26.001h-5.586v-5.586l11-11 5.586 5.586-11 11zM24 13.586l-5.586-5.585 3-3 5.586 5.585-3 3z"></path>
</symbol>
<symbol id="icon-send" viewBox="0 0 32 32">
<path d="M29.004 15.986c0.001 0.356-0.093 0.706-0.273 1.014s-0.438 0.562-0.749 0.736l-20.989 12.001c-0.302 0.171-0.642 0.261-0.989 0.263-0.32-0.001-0.635-0.078-0.918-0.225s-0.528-0.361-0.712-0.622c-0.184-0.261-0.303-0.563-0.347-0.88s-0.011-0.639 0.096-0.941l3.419-9.994c0.034-0.099 0.098-0.185 0.182-0.245s0.187-0.093 0.291-0.093h8.989c0.137 0 0.273-0.028 0.399-0.082s0.239-0.134 0.333-0.234c0.094-0.1 0.166-0.218 0.212-0.347s0.065-0.266 0.056-0.403c-0.023-0.257-0.142-0.496-0.333-0.669s-0.441-0.268-0.699-0.264h-8.947c-0.104 0-0.206-0.032-0.291-0.093s-0.149-0.146-0.183-0.245l-3.43-10c-0.134-0.383-0.147-0.798-0.040-1.189s0.332-0.74 0.643-1.001c0.311-0.261 0.694-0.421 1.098-0.459s0.81 0.048 1.164 0.246l21 11.986c0.309 0.174 0.566 0.427 0.745 0.733s0.273 0.654 0.274 1.008z"></path>
</symbol>
<symbol id="icon-arrow-up" viewBox="0 0 32 32">
<path d="M27.065 21.060c-0.139 0.14-0.305 0.251-0.487 0.326s-0.378 0.115-0.575 0.115-0.393-0.039-0.575-0.115c-0.182-0.076-0.348-0.187-0.487-0.326l-8.936-8.936-8.939 8.936c-0.282 0.282-0.664 0.44-1.063 0.44s-0.781-0.158-1.063-0.44c-0.282-0.282-0.44-0.664-0.44-1.063s0.158-0.781 0.44-1.063l10-10c0.139-0.14 0.305-0.251 0.487-0.326s0.378-0.115 0.575-0.115c0.197 0 0.393 0.039 0.575 0.115s0.348 0.187 0.487 0.326l10 10c0.14 0.139 0.251 0.305 0.326 0.487s0.115 0.378 0.115 0.575c0 0.197-0.039 0.393-0.115 0.575s-0.187 0.348-0.326 0.487z"></path>
</symbol>
<symbol id="icon-signin" viewBox="0 0 32 32">
<path d="M17.707 16.707l-5 5c-0.093 0.093-0.203 0.167-0.325 0.217s-0.252 0.076-0.383 0.076c-0.131 0-0.261-0.026-0.383-0.076s-0.232-0.124-0.325-0.217c-0.093-0.093-0.167-0.203-0.217-0.325s-0.076-0.251-0.076-0.383 0.026-0.262 0.076-0.383c0.050-0.121 0.124-0.232 0.217-0.325l3.294-3.292h-11.586c-0.265 0-0.52-0.105-0.707-0.293s-0.293-0.442-0.293-0.707c0-0.265 0.105-0.52 0.293-0.707s0.442-0.293 0.707-0.293h11.586l-3.294-3.293c-0.188-0.188-0.293-0.442-0.293-0.707s0.105-0.52 0.293-0.707c0.188-0.188 0.442-0.293 0.707-0.293s0.52 0.105 0.707 0.293l5 5c0.093 0.093 0.167 0.203 0.217 0.325s0.076 0.252 0.076 0.383c0 0.131-0.026 0.262-0.076 0.383s-0.124 0.232-0.217 0.325zM24 4h-7c-0.265 0-0.52 0.105-0.707 0.293s-0.293 0.442-0.293 0.707c0 0.265 0.105 0.52 0.293 0.707s0.442 0.293 0.707 0.293h7v20h-7c-0.265 0-0.52 0.105-0.707 0.293s-0.293 0.442-0.293 0.707 0.105 0.52 0.293 0.707c0.188 0.187 0.442 0.293 0.707 0.293h7c0.53 0 1.039-0.211 1.414-0.586s0.586-0.884 0.586-1.414v-20c0-0.53-0.211-1.039-0.586-1.414s-0.884-0.586-1.414-0.586z"></path>
</symbol>
<symbol id="icon-mail" viewBox="0 0 32 32">
<path d="M28 6h-24c-0.265 0-0.52 0.105-0.707 0.293s-0.293 0.442-0.293 0.707v17c0 0.53 0.211 1.039 0.586 1.414s0.884 0.586 1.414 0.586h22c0.53 0 1.039-0.211 1.414-0.586s0.586-0.884 0.586-1.414v-17c0-0.265-0.105-0.52-0.293-0.707s-0.442-0.293-0.707-0.293zM25.429 8l-9.429 8.644-9.429-8.644h18.858zM27 24h-22v-14.726l10.324 9.464c0.184 0.169 0.426 0.263 0.676 0.263s0.492-0.094 0.676-0.263l10.324-9.464v14.726z"></path>
</symbol>
<symbol id="icon-viber" viewBox="0 0 32 32">
<path d="M28.423 3.13c-0.842-0.714-4.21-3.065-11.787-3.107 0 0-8.906-0.504-13.249 3.275-2.437 2.309-3.279 5.627-3.368 9.784s-0.222 11.925 7.71 14.066v3.233c0 0-0.044 1.302 0.842 1.554 1.108 0.336 1.728-0.672 2.792-1.722 0.576-0.588 1.374-1.428 1.95-2.099 5.406 0.42 9.571-0.546 10.058-0.714 1.108-0.336 7.267-1.092 8.286-8.86 1.063-8.062-0.443-13.143-3.235-15.41zM29.353 17.91c-0.842 6.508-5.849 6.928-6.779 7.18-0.399 0.126-4.032 0.966-8.64 0.714 0 0-3.412 3.905-4.52 4.955-0.177 0.168-0.354 0.21-0.487 0.21-0.177-0.042-0.222-0.252-0.222-0.546 0-0.42 0.044-5.375 0.044-5.375-6.691-1.764-6.292-8.398-6.248-11.883 0.089-3.485 0.753-6.298 2.792-8.23 3.678-3.149 11.255-2.687 11.255-2.687 6.381 0.042 9.438 1.848 10.147 2.477 2.304 1.932 3.501 6.508 2.659 13.185z"></path>
<path fill="none" stroke="#000" style="stroke: var(--color2, #000)" stroke-linejoin="round" stroke-linecap="round" stroke-miterlimit="4" stroke-width="0.8005" d="M19.742 12.914c-0.089-1.596-0.931-2.435-2.57-2.519"></path>
<path fill="none" stroke="#000" style="stroke: var(--color2, #000)" stroke-linejoin="round" stroke-linecap="round" stroke-miterlimit="4" stroke-width="0.8005" d="M21.955 13.586c0.044-1.47-0.443-2.729-1.374-3.695-0.975-1.008-2.304-1.554-3.988-1.68"></path>
<path fill="none" stroke="#000" style="stroke: var(--color2, #000)" stroke-linejoin="round" stroke-linecap="round" stroke-miterlimit="4" stroke-width="0.8005" d="M24.169 14.425c0-2.561-0.842-4.577-2.437-6.047s-3.589-2.226-5.982-2.226"></path>
<path d="M17.256 18.329c0 0 0.62 0.042 0.93-0.336l0.62-0.756c0.31-0.378 1.019-0.63 1.773-0.252 0.399 0.21 1.108 0.63 1.551 0.966 0.487 0.336 1.462 1.092 1.462 1.092 0.487 0.378 0.576 0.924 0.266 1.512-0.31 0.546-0.753 1.050-1.329 1.512-0.443 0.378-0.886 0.546-1.329 0.63h-0.177c-0.177 0-0.399-0.042-0.576-0.084-0.665-0.168-1.772-0.63-3.678-1.596-1.196-0.63-2.216-1.302-3.057-1.932-0.443-0.336-0.931-0.714-1.374-1.176l-0.177-0.168c-0.487-0.462-0.886-0.882-1.241-1.302-0.665-0.798-1.374-1.764-2.038-2.897-1.019-1.764-1.507-2.813-1.684-3.485-0.044-0.168-0.089-0.336-0.089-0.546v-0.168c0.044-0.42 0.266-0.84 0.665-1.26 0.487-0.504 1.019-0.924 1.595-1.26 0.62-0.294 1.196-0.21 1.595 0.252 0 0 0.798 0.924 1.152 1.386 0.31 0.42 0.753 1.092 1.019 1.47 0.399 0.672 0.133 1.386-0.222 1.68l-0.798 0.588c-0.399 0.294-0.354 0.882-0.354 0.882s1.108 4.157 5.494 5.249z"></path>
</symbol>
<symbol id="icon-telegram" viewBox="0 0 32 32">
<path d="M2.211 12.235c8.578-3.7 14.312-6.091 17.202-7.265 8.165-3.339 9.862-3.926 10.963-3.971 0.229 0 0.78 0.045 1.147 0.316 0.275 0.226 0.367 0.541 0.413 0.767s0.092 0.722 0.046 1.128c-0.459 4.557-2.339 15.702-3.349 20.801-0.413 2.166-1.238 2.888-2.018 2.978-1.697 0.135-3.027-1.128-4.679-2.166-2.569-1.67-4.037-2.707-6.559-4.332-2.89-1.895-1.009-2.933 0.642-4.602 0.413-0.451 7.982-7.174 8.119-7.806 0-0.090 0.046-0.361-0.138-0.496s-0.413-0.090-0.596-0.045c-0.275 0.045-4.404 2.752-12.431 8.077-1.193 0.812-2.248 1.173-3.211 1.173-1.055 0-3.073-0.587-4.587-1.083-1.835-0.587-3.303-0.902-3.165-1.895 0.092-0.496 0.826-1.038 2.202-1.579z"></path>
</symbol>
<symbol id="icon-whatsapp" viewBox="0 0 32 32">
<path d="M27.337 4.647c-3.008-2.995-7.008-4.645-11.27-4.647-8.783 0-15.93 7.108-15.934 15.844-0.002 2.793 0.733 5.519 2.127 7.921l-2.261 8.211 8.447-2.203c2.327 1.263 4.947 1.927 7.614 1.928h0.007c8.781 0 15.93-7.108 15.933-15.845 0.002-4.234-1.654-8.214-4.663-11.209v-0.001zM16.067 29.026h-0.005c-2.376-0.001-4.707-0.636-6.741-1.836l-0.484-0.286-5.012 1.307 1.338-4.86-0.315-0.498c-1.325-2.097-2.026-4.521-2.025-7.009 0.003-7.261 5.944-13.169 13.249-13.169 3.537 0.002 6.862 1.373 9.363 3.863s3.876 5.799 3.875 9.317c-0.003 7.262-5.944 13.17-13.243 13.17v0.001zM23.331 19.163c-0.398-0.198-2.355-1.156-2.721-1.288s-0.63-0.198-0.895 0.198c-0.265 0.397-1.028 1.289-1.261 1.552s-0.465 0.297-0.863 0.099c-0.398-0.198-1.681-0.616-3.202-1.965-1.183-1.050-1.983-2.346-2.215-2.743s-0.024-0.611 0.174-0.808c0.179-0.178 0.398-0.463 0.597-0.694s0.265-0.397 0.398-0.66c0.133-0.264 0.066-0.495-0.033-0.694s-0.895-2.147-1.228-2.94c-0.323-0.772-0.652-0.667-0.895-0.68-0.232-0.011-0.497-0.014-0.763-0.014s-0.697 0.099-1.062 0.495c-0.365 0.397-1.393 1.355-1.393 3.303s1.426 3.832 1.626 4.096c0.199 0.264 2.808 4.263 6.801 5.979 0.95 0.408 1.691 0.652 2.27 0.834 0.954 0.302 1.821 0.259 2.507 0.157 0.765-0.114 2.355-0.958 2.687-1.883s0.331-1.718 0.232-1.883-0.365-0.264-0.763-0.463l0.001-0.002z"></path>
</symbol>
<symbol id="icon-fullscreen" viewBox="0 0 32 32">
<path d="M27 6v6c0 0.265-0.105 0.52-0.293 0.707s-0.442 0.293-0.707 0.293-0.52-0.105-0.707-0.293c-0.187-0.188-0.293-0.442-0.293-0.707v-3.586l-6.293 6.294c-0.188 0.188-0.442 0.293-0.707 0.293s-0.52-0.105-0.707-0.293c-0.188-0.188-0.293-0.442-0.293-0.707s0.105-0.52 0.293-0.707l6.294-6.293h-3.586c-0.265 0-0.52-0.105-0.707-0.293s-0.293-0.442-0.293-0.707c0-0.265 0.105-0.52 0.293-0.707s0.442-0.293 0.707-0.293h6c0.265 0 0.52 0.105 0.707 0.293s0.293 0.442 0.293 0.707zM13.293 17.293l-6.293 6.294v-3.586c0-0.265-0.105-0.52-0.293-0.707s-0.442-0.293-0.707-0.293c-0.265 0-0.52 0.105-0.707 0.293s-0.293 0.442-0.293 0.707v6c0 0.265 0.105 0.52 0.293 0.707s0.442 0.293 0.707 0.293h6c0.265 0 0.52-0.105 0.707-0.293s0.293-0.442 0.293-0.707-0.105-0.52-0.293-0.707c-0.188-0.187-0.442-0.293-0.707-0.293h-3.586l6.294-6.293c0.188-0.188 0.293-0.442 0.293-0.707s-0.105-0.52-0.293-0.707c-0.188-0.188-0.442-0.293-0.707-0.293s-0.52 0.105-0.707 0.293z"></path>
</symbol>
<symbol id="icon-arrow-left" viewBox="0 0 32 32">
<path d="M21.058 24.938c0.282 0.282 0.44 0.664 0.44 1.062s-0.158 0.781-0.44 1.063-0.664 0.44-1.063 0.44c-0.399 0-0.781-0.158-1.063-0.44l-10-10c-0.14-0.139-0.251-0.305-0.326-0.487s-0.115-0.378-0.115-0.575c0-0.197 0.039-0.393 0.115-0.575s0.187-0.348 0.326-0.487l10-10c0.282-0.282 0.664-0.44 1.063-0.44s0.781 0.158 1.063 0.44c0.282 0.282 0.44 0.664 0.44 1.063s-0.158 0.781-0.44 1.063l-8.936 8.936 8.936 8.939z"></path>
</symbol>
<symbol id="icon-arrow-right" viewBox="0 0 32 32">
<path d="M23.065 17.061l-10 10c-0.282 0.282-0.664 0.44-1.063 0.44s-0.781-0.158-1.063-0.44c-0.282-0.282-0.44-0.664-0.44-1.063s0.158-0.781 0.44-1.062l8.939-8.936-8.936-8.939c-0.14-0.14-0.25-0.305-0.326-0.487s-0.114-0.378-0.114-0.575c0-0.197 0.039-0.393 0.114-0.575s0.186-0.348 0.326-0.487c0.14-0.14 0.305-0.25 0.487-0.326s0.378-0.114 0.575-0.114c0.197 0 0.393 0.039 0.575 0.114s0.348 0.186 0.487 0.326l10 10c0.14 0.14 0.25 0.305 0.326 0.488s0.114 0.378 0.114 0.575-0.039 0.393-0.115 0.575c-0.076 0.182-0.187 0.348-0.327 0.487z"></path>
</symbol>
<symbol id="icon-download" viewBox="0 0 32 32">
<path d="M28 19v7c0 0.53-0.211 1.039-0.586 1.414s-0.884 0.586-1.414 0.586h-20c-0.53 0-1.039-0.211-1.414-0.586s-0.586-0.884-0.586-1.414v-7c0-0.265 0.105-0.52 0.293-0.707s0.442-0.293 0.707-0.293c0.265 0 0.52 0.105 0.707 0.293s0.293 0.442 0.293 0.707v7h20v-7c0-0.265 0.105-0.52 0.293-0.707s0.442-0.293 0.707-0.293 0.52 0.105 0.707 0.293c0.187 0.188 0.293 0.442 0.293 0.707zM15.293 19.707c0.093 0.093 0.203 0.167 0.325 0.217s0.252 0.076 0.383 0.076c0.131 0 0.262-0.026 0.383-0.076s0.232-0.124 0.325-0.217l5-5c0.093-0.093 0.167-0.203 0.217-0.325s0.076-0.252 0.076-0.383c0-0.131-0.026-0.261-0.076-0.383s-0.124-0.232-0.217-0.325c-0.093-0.093-0.203-0.167-0.325-0.217s-0.251-0.076-0.383-0.076-0.262 0.026-0.383 0.076c-0.121 0.050-0.232 0.124-0.325 0.217l-3.292 3.294v-11.586c0-0.265-0.105-0.52-0.293-0.707s-0.442-0.293-0.707-0.293c-0.265 0-0.52 0.105-0.707 0.293s-0.293 0.442-0.293 0.707v11.586l-3.293-3.294c-0.188-0.188-0.442-0.293-0.707-0.293s-0.52 0.105-0.707 0.293c-0.188 0.188-0.293 0.442-0.293 0.707s0.105 0.52 0.293 0.707l5 5z"></path>
</symbol>
<symbol id="icon-upload" viewBox="0 0 32 32">
<path d="M28 19v7c0 0.53-0.211 1.039-0.586 1.414s-0.884 0.586-1.414 0.586h-20c-0.53 0-1.039-0.211-1.414-0.586s-0.586-0.884-0.586-1.414v-7c0-0.265 0.105-0.52 0.293-0.707s0.442-0.293 0.707-0.293c0.265 0 0.52 0.105 0.707 0.293s0.293 0.442 0.293 0.707v7h20v-7c0-0.265 0.105-0.52 0.293-0.707s0.442-0.293 0.707-0.293 0.52 0.105 0.707 0.293c0.187 0.188 0.293 0.442 0.293 0.707zM11.707 10.708l3.293-3.294v11.586c0 0.265 0.105 0.52 0.293 0.707s0.442 0.293 0.707 0.293c0.265 0 0.52-0.105 0.707-0.293s0.293-0.442 0.293-0.707v-11.586l3.292 3.294c0.188 0.188 0.442 0.293 0.708 0.293s0.52-0.105 0.708-0.293c0.188-0.188 0.293-0.442 0.293-0.707s-0.105-0.52-0.293-0.707l-5-5c-0.093-0.093-0.203-0.167-0.325-0.217s-0.252-0.076-0.383-0.076c-0.131 0-0.262 0.026-0.383 0.076s-0.232 0.124-0.325 0.217l-5 5c-0.188 0.188-0.293 0.442-0.293 0.707s0.105 0.52 0.293 0.707c0.188 0.188 0.442 0.293 0.707 0.293s0.52-0.105 0.707-0.293z"></path>
</symbol>
<symbol id="icon-reload" viewBox="0 0 32 32">
<path d="M30.001 7.001v6c0 0.265-0.105 0.52-0.293 0.707s-0.442 0.293-0.707 0.293h-6c-0.265 0-0.52-0.105-0.707-0.293s-0.293-0.442-0.293-0.707 0.105-0.52 0.293-0.707c0.187-0.188 0.442-0.293 0.707-0.293h3.425l-3.355-3.075c-1.39-1.389-3.158-2.338-5.084-2.729s-3.925-0.204-5.746 0.535c-1.821 0.739-3.384 1.998-4.493 3.62s-1.716 3.535-1.745 5.5c-0.029 1.965 0.522 3.895 1.584 5.549s2.587 2.958 4.386 3.75c1.799 0.792 3.791 1.036 5.728 0.702s3.732-1.231 5.162-2.579c0.193-0.182 0.45-0.281 0.715-0.273s0.517 0.12 0.699 0.313c0.182 0.193 0.281 0.45 0.273 0.715s-0.12 0.517-0.313 0.699c-2.223 2.108-5.172 3.281-8.236 3.274h-0.165c-1.965-0.027-3.894-0.536-5.616-1.483s-3.186-2.302-4.262-3.947c-1.076-1.645-1.731-3.529-1.909-5.486s0.129-3.929 0.892-5.74c0.763-1.811 1.959-3.408 3.483-4.649s3.33-2.088 5.259-2.468c1.929-0.38 3.921-0.28 5.802 0.291s3.593 1.595 4.985 2.982l3.531 3.225v-3.725c0-0.265 0.105-0.52 0.293-0.707s0.442-0.293 0.707-0.293 0.52 0.105 0.707 0.293c0.188 0.188 0.293 0.442 0.293 0.707z"></path>
</symbol>
<symbol id="icon-filter" viewBox="0 0 32 32">
<path d="M25 16c0 0.265-0.105 0.52-0.293 0.707s-0.442 0.293-0.707 0.293h-16c-0.265 0-0.52-0.105-0.707-0.293s-0.293-0.442-0.293-0.707c0-0.265 0.105-0.52 0.293-0.707s0.442-0.293 0.707-0.293h16c0.265 0 0.52 0.105 0.707 0.293s0.293 0.442 0.293 0.707zM29 9h-26c-0.265 0-0.52 0.105-0.707 0.293s-0.293 0.442-0.293 0.707c0 0.265 0.105 0.52 0.293 0.707s0.442 0.293 0.707 0.293h26c0.265 0 0.52-0.105 0.707-0.293s0.293-0.442 0.293-0.707-0.105-0.52-0.293-0.707c-0.188-0.188-0.442-0.293-0.707-0.293zM19 21h-6c-0.265 0-0.52 0.105-0.707 0.293s-0.293 0.442-0.293 0.707 0.105 0.52 0.293 0.707c0.188 0.187 0.442 0.293 0.707 0.293h6c0.265 0 0.52-0.105 0.707-0.293s0.293-0.442 0.293-0.707-0.105-0.52-0.293-0.707c-0.188-0.187-0.442-0.293-0.707-0.293z"></path>
</symbol>
<symbol id="icon-split" viewBox="0 0 32 32">
<path d="M25 5h-18c-0.53 0-1.039 0.211-1.414 0.586s-0.586 0.884-0.586 1.414v18c0 0.53 0.211 1.039 0.586 1.414s0.884 0.586 1.414 0.586h18c0.53 0 1.039-0.211 1.414-0.586s0.586-0.884 0.586-1.414v-18c0-0.53-0.211-1.039-0.586-1.414s-0.884-0.586-1.414-0.586zM7 7h8v18h-8v-18zM25 25h-8v-18h8v18z"></path>
</symbol>
<symbol id="icon-plus-circle" viewBox="0 0 32 32">
<path d="M16 3c-2.571 0-5.085 0.762-7.222 2.191s-3.804 3.459-4.788 5.834c-0.984 2.375-1.241 4.989-0.74 7.511s1.74 4.838 3.558 6.656 4.134 3.056 6.656 3.558c2.522 0.502 5.136 0.244 7.511-0.74s4.406-2.65 5.834-4.788c1.428-2.138 2.191-4.651 2.191-7.222-0.004-3.447-1.375-6.751-3.812-9.188s-5.741-3.808-9.188-3.812zM21 17h-4v4c0 0.265-0.105 0.52-0.293 0.707s-0.442 0.293-0.707 0.293-0.52-0.105-0.707-0.293c-0.188-0.188-0.293-0.442-0.293-0.707v-4h-4c-0.265 0-0.52-0.105-0.707-0.293s-0.293-0.442-0.293-0.707c0-0.265 0.105-0.52 0.293-0.707s0.442-0.293 0.707-0.293h4v-4c0-0.265 0.105-0.52 0.293-0.707s0.442-0.293 0.707-0.293c0.265 0 0.52 0.105 0.707 0.293s0.293 0.442 0.293 0.707v4h4c0.265 0 0.52 0.105 0.707 0.293s0.293 0.442 0.293 0.707-0.105 0.52-0.293 0.707c-0.188 0.188-0.442 0.293-0.707 0.293z"></path>
</symbol>
<symbol id="icon-play" viewBox="0 0 12 13" xmlns="http://www.w3.org/2000/svg">
<path d="M11.2266 6.50031C11.2269 6.67008 11.1861 6.83706 11.1081 6.98503C11.0301 7.13299 10.9175 7.25689 10.7812 7.34469L2.33906 12.8534C2.19673 12.9464 2.03371 12.9972 1.86684 13.0005C1.69997 13.0037 1.53531 12.9595 1.38984 12.8722C1.24577 12.7863 1.12575 12.661 1.04213 12.5091C0.958507 12.3573 0.914303 12.1845 0.914062 12.0084V0.992187C0.914303 0.816115 0.958507 0.643289 1.04213 0.491481C1.12575 0.339674 1.24577 0.214363 1.38984 0.128437C1.53531 0.0411548 1.69997 -0.00312471 1.86684 0.000171466C2.03371 0.00346764 2.19673 0.0542201 2.33906 0.147187L10.7812 5.65594C10.9175 5.74373 11.0301 5.86764 11.1081 6.0156C11.1861 6.16356 11.2269 6.33054 11.2266 6.50031Z"/>
</symbol>
    <symbol id="icon-arrow-back" viewBox="0 0 32 32">
        <path d="M4.293 15.292l9-9c0.188-0.188 0.442-0.293 0.707-0.293s0.52 0.105 0.707 0.293c0.188 0.188 0.293 0.442 0.293 0.707s-0.105 0.52-0.293 0.707l-7.294 7.293h19.586c0.265 0 0.52 0.105 0.707 0.293s0.293 0.442 0.293 0.707-0.105 0.52-0.293 0.707c-0.187 0.188-0.442 0.293-0.707 0.293h-19.586l7.294 7.293c0.188 0.188 0.293 0.442 0.293 0.707s-0.105 0.52-0.293 0.707c-0.188 0.188-0.442 0.293-0.707 0.293s-0.52-0.105-0.707-0.293l-9-9c-0.093-0.093-0.167-0.203-0.217-0.325s-0.076-0.252-0.076-0.383c0-0.131 0.026-0.262 0.076-0.383s0.124-0.232 0.217-0.325z"></path>
    </symbol>
    <symbol id="icon-phone" viewBox="0 0 32 32">
<path  d="M28.985 21.885c-0.223 1.694-1.055 3.249-2.34 4.374s-2.937 1.744-4.645 1.741c-9.925 0-18-8.075-18-18-0.003-1.708 0.616-3.359 1.741-4.645s2.68-2.117 4.374-2.34c0.428-0.052 0.862 0.035 1.236 0.25s0.669 0.544 0.841 0.94l2.64 5.894v0.015c0.131 0.303 0.186 0.634 0.158 0.963s-0.137 0.646-0.317 0.923c-0.023 0.034-0.046 0.065-0.071 0.096l-2.603 3.085c0.936 1.903 2.926 3.875 4.854 4.814l3.043-2.589c0.030-0.025 0.061-0.049 0.094-0.070 0.277-0.185 0.595-0.297 0.926-0.328s0.665 0.022 0.97 0.153l0.016 0.008 5.889 2.639c0.397 0.171 0.727 0.466 0.943 0.84s0.303 0.809 0.251 1.237z"></path>
</symbol>
<symbol id="icon-dots-horizontal" viewBox="0 0 32 32">
<path d="M18.54 16c0 0.527-0.149 1.043-0.428 1.481s-0.676 0.78-1.14 0.982c-0.464 0.202-0.975 0.255-1.467 0.152s-0.945-0.357-1.3-0.73-0.597-0.848-0.695-1.365c-0.098-0.517-0.048-1.053 0.145-1.541s0.518-0.904 0.935-1.197c0.418-0.293 0.909-0.449 1.411-0.449 0.674 0 1.32 0.281 1.796 0.781s0.744 1.178 0.744 1.886zM5.206 13.333c-0.502 0-0.993 0.156-1.411 0.449s-0.743 0.709-0.935 1.197c-0.192 0.487-0.243 1.023-0.145 1.541s0.34 0.992 0.695 1.365 0.808 0.627 1.3 0.73c0.493 0.103 1.003 0.050 1.467-0.152s0.861-0.544 1.14-0.982 0.428-0.954 0.428-1.481c0-0.707-0.268-1.385-0.744-1.886s-1.122-0.781-1.796-0.781zM26.794 13.333c-0.502 0-0.993 0.156-1.411 0.449s-0.743 0.709-0.935 1.197c-0.192 0.487-0.243 1.023-0.145 1.541s0.34 0.992 0.695 1.365 0.808 0.627 1.3 0.73c0.493 0.103 1.003 0.050 1.467-0.152s0.861-0.544 1.14-0.982 0.428-0.954 0.428-1.481c0-0.707-0.268-1.385-0.744-1.886s-1.122-0.781-1.796-0.781z"></path>
</symbol>

<symbol id="icon-sort-both" viewBox="0 0 16 16" xmlns="http://www.w3.org/2000/svg">
<path d="M4.53852 5.19125C4.50062 5.09989 4.49066 4.99936 4.50991 4.90235C4.52916 4.80533 4.57674 4.71621 4.64664 4.64625L7.64664 1.64625C7.69308 1.59976 7.74822 1.56288 7.80892 1.53772C7.86962 1.51255 7.93469 1.4996 8.00039 1.4996C8.0661 1.4996 8.13116 1.51255 8.19186 1.53772C8.25256 1.56288 8.30771 1.59976 8.35414 1.64625L11.3541 4.64625C11.4241 4.71617 11.4718 4.8053 11.4912 4.90234C11.5105 4.99939 11.5006 5.09998 11.4627 5.19139C11.4248 5.2828 11.3607 5.36092 11.2784 5.41586C11.1961 5.47079 11.0993 5.50007 11.0004 5.5H5.00039C4.9015 5.49998 4.80484 5.47063 4.72263 5.41568C4.64041 5.36072 4.57634 5.28262 4.53852 5.19125ZM11.0004 10.5H5.00039C4.90145 10.4999 4.8047 10.5292 4.7224 10.5841C4.64011 10.6391 4.57596 10.7172 4.53808 10.8086C4.50021 10.9 4.4903 11.0006 4.50963 11.0976C4.52895 11.1947 4.57664 11.2838 4.64664 11.3537L7.64664 14.3537C7.69308 14.4002 7.74822 14.4371 7.80892 14.4623C7.86962 14.4874 7.93469 14.5004 8.00039 14.5004C8.0661 14.5004 8.13116 14.4874 8.19186 14.4623C8.25256 14.4371 8.30771 14.4002 8.35414 14.3537L11.3541 11.3537C11.4241 11.2838 11.4718 11.1947 11.4912 11.0976C11.5105 11.0006 11.5006 10.9 11.4627 10.8086C11.4248 10.7172 11.3607 10.6391 11.2784 10.5841C11.1961 10.5292 11.0993 10.4999 11.0004 10.5Z" />
</symbol>
<symbol id="icon-sort-down" viewBox="0 0 32 32">
<path d="M21.935 12.617c0.065 0.183 0.082 0.384 0.049 0.578s-0.115 0.372-0.234 0.512l-5.143 5.999c-0.080 0.093-0.174 0.167-0.278 0.217s-0.216 0.076-0.328 0.076c-0.113 0-0.224-0.026-0.328-0.076s-0.199-0.124-0.278-0.217l-5.143-5.999c-0.12-0.14-0.202-0.318-0.235-0.512s-0.016-0.395 0.049-0.578c0.065-0.183 0.175-0.339 0.316-0.449s0.307-0.168 0.477-0.168h10.285c0.17 0 0.335 0.059 0.476 0.169s0.251 0.266 0.316 0.449z"></path>
</symbol>
<symbol id="icon-sort-up" viewBox="0 0 32 32">
<path d="M10.065 19.383c-0.065-0.183-0.082-0.384-0.049-0.578s0.115-0.372 0.234-0.512l5.143-5.999c0.080-0.093 0.174-0.167 0.278-0.217s0.216-0.076 0.328-0.076c0.113 0 0.224 0.026 0.328 0.076s0.199 0.124 0.278 0.217l5.143 5.999c0.12 0.14 0.202 0.318 0.235 0.512s0.016 0.395-0.049 0.578c-0.065 0.183-0.175 0.339-0.316 0.449s-0.307 0.168-0.477 0.168h-10.285c-0.17-0-0.335-0.059-0.476-0.169s-0.251-0.266-0.316-0.449z"></path>
</symbol>
<symbol id="icon-info" viewBox="0 0 32 32">
<path d="M16 29c2.571 0 5.085-0.762 7.222-2.191s3.804-3.459 4.788-5.834c0.984-2.375 1.241-4.989 0.74-7.511s-1.74-4.838-3.558-6.656-4.134-3.056-6.656-3.558c-2.522-0.502-5.136-0.244-7.511 0.74s-4.406 2.65-5.834 4.788c-1.428 2.138-2.191 4.651-2.191 7.222 0.004 3.447 1.374 6.751 3.812 9.188s5.742 3.808 9.188 3.812zM16 5c2.176 0 4.302 0.645 6.111 1.854s3.219 2.927 4.051 4.937c0.833 2.010 1.050 4.222 0.626 6.355s-1.472 4.094-3.011 5.632c-1.538 1.538-3.498 2.586-5.632 3.011s-4.346 0.207-6.355-0.626-3.728-2.242-4.937-4.051c-1.209-1.809-1.854-3.936-1.854-6.111 0.003-2.916 1.163-5.712 3.225-7.775s4.858-3.222 7.775-3.225zM17 15v7c0 0.265-0.105 0.52-0.293 0.707s-0.442 0.293-0.707 0.293-0.52-0.105-0.707-0.293c-0.188-0.187-0.293-0.442-0.293-0.707v-7c0-0.265 0.105-0.52 0.293-0.707s0.442-0.293 0.707-0.293c0.265 0 0.52 0.105 0.707 0.293s0.293 0.442 0.293 0.707zM14.5 10.5c0-0.297 0.088-0.587 0.253-0.833s0.399-0.439 0.673-0.552c0.274-0.114 0.576-0.143 0.867-0.085s0.558 0.201 0.768 0.411c0.21 0.21 0.353 0.477 0.41 0.768s0.028 0.593-0.085 0.867c-0.114 0.274-0.306 0.508-0.552 0.673s-0.537 0.253-0.833 0.253c-0.398 0-0.779-0.158-1.061-0.439s-0.439-0.663-0.439-1.061z"></path>
</symbol>
<symbol id="icon-speaker-off" viewBox="0 0 30 32">
<path d="M21.789 18.841v-5.684c0-0.251 0.1-0.492 0.278-0.67s0.419-0.277 0.67-0.277 0.492 0.1 0.67 0.277c0.178 0.178 0.278 0.419 0.278 0.67v5.684c0 0.251-0.1 0.492-0.278 0.67s-0.419 0.278-0.67 0.278-0.492-0.1-0.67-0.278c-0.178-0.178-0.278-0.419-0.278-0.67zM26.526 10.315c-0.251 0-0.492 0.1-0.67 0.277s-0.278 0.419-0.278 0.67v9.474c0 0.251 0.1 0.492 0.278 0.67s0.419 0.278 0.67 0.278 0.492-0.1 0.67-0.278c0.178-0.178 0.278-0.419 0.278-0.67v-9.474c0-0.251-0.1-0.492-0.278-0.67s-0.419-0.277-0.67-0.277zM25.333 25.783c0.085 0.092 0.152 0.2 0.195 0.317s0.063 0.243 0.058 0.368c-0.005 0.125-0.035 0.248-0.088 0.362s-0.128 0.215-0.221 0.3c-0.093 0.084-0.201 0.149-0.319 0.192s-0.244 0.060-0.369 0.054-0.248-0.038-0.361-0.093c-0.113-0.054-0.214-0.131-0.297-0.224l-4.983-5.482v5.792c-0 0.177-0.050 0.351-0.144 0.501s-0.228 0.271-0.387 0.349-0.337 0.109-0.514 0.091c-0.176-0.018-0.344-0.086-0.484-0.195l-8.271-6.431h-5.359c-0.503 0-0.984-0.2-1.34-0.555s-0.555-0.837-0.555-1.34v-7.579c0-0.503 0.2-0.984 0.555-1.34s0.837-0.555 1.34-0.555h4.92l-3.727-4.1c-0.085-0.092-0.152-0.2-0.195-0.317s-0.063-0.243-0.058-0.368c0.005-0.125 0.035-0.248 0.088-0.362s0.128-0.215 0.221-0.3c0.093-0.084 0.201-0.149 0.319-0.191s0.243-0.060 0.369-0.053c0.125 0.007 0.248 0.038 0.361 0.093s0.214 0.131 0.297 0.225l18.947 20.842zM17.053 19.492l-6.62-7.282h-6.643v7.579h5.684c0.211-0 0.416 0.070 0.581 0.2l6.997 5.442v-5.939zM13.862 9.049l3.19-2.487v6.924c0 0.251 0.1 0.492 0.278 0.67s0.419 0.277 0.67 0.277 0.492-0.1 0.67-0.277c0.178-0.178 0.278-0.419 0.278-0.67v-8.856c-0-0.177-0.050-0.351-0.144-0.501s-0.228-0.271-0.387-0.349-0.337-0.109-0.514-0.091c-0.176 0.018-0.344 0.086-0.484 0.194l-4.719 3.671c-0.194 0.156-0.32 0.381-0.349 0.629s0.040 0.496 0.193 0.693c0.153 0.197 0.377 0.325 0.624 0.358s0.497-0.033 0.695-0.183v-0.001z"></path>
</symbol>
<symbol id="icon-circle-plus" viewBox="0 0 32 32">
<path fill="#fff" style="fill: var(--color1, #fff)" d="M16 3c-2.571 0-5.085 0.762-7.222 2.191s-3.804 3.459-4.788 5.834c-0.984 2.375-1.241 4.989-0.74 7.511s1.74 4.838 3.558 6.656c1.818 1.818 4.134 3.056 6.656 3.558s5.136 0.244 7.511-0.74c2.376-0.984 4.406-2.65 5.834-4.788s2.191-4.651 2.191-7.222c-0.004-3.447-1.375-6.751-3.812-9.188s-5.741-3.808-9.188-3.812zM21 17h-4v4c0 0.265-0.105 0.52-0.293 0.707s-0.442 0.293-0.707 0.293c-0.265 0-0.52-0.105-0.707-0.293s-0.293-0.442-0.293-0.707v-4h-4c-0.265 0-0.52-0.105-0.707-0.293s-0.293-0.442-0.293-0.707c0-0.265 0.105-0.52 0.293-0.707s0.442-0.293 0.707-0.293h4v-4c0-0.265 0.105-0.52 0.293-0.707s0.442-0.293 0.707-0.293c0.265 0 0.52 0.105 0.707 0.293s0.293 0.442 0.293 0.707v4h4c0.265 0 0.52 0.105 0.707 0.293s0.293 0.442 0.293 0.707c0 0.265-0.105 0.52-0.293 0.707s-0.442 0.293-0.707 0.293z"></path>
</symbol>
<symbol id="icon-hash" viewBox="0 0 12 12" xmlns="http://www.w3.org/2000/svg">
<path d="M10.5 3.9377H8.44687L8.80359 1.97598C8.83032 1.82915 8.79763 1.67773 8.71271 1.55501C8.62779 1.43229 8.4976 1.34833 8.35078 1.3216C8.20396 1.29487 8.05253 1.32756 7.92981 1.41248C7.80709 1.4974 7.72313 1.62759 7.69641 1.77441L7.30313 3.9377H5.44687L5.80359 1.97598C5.81683 1.90328 5.81561 1.82868 5.80002 1.75645C5.78443 1.68422 5.75476 1.61577 5.71271 1.55501C5.67067 1.49424 5.61706 1.44236 5.55496 1.40231C5.49286 1.36226 5.42348 1.33484 5.35078 1.3216C5.27808 1.30837 5.20349 1.30958 5.13126 1.32517C5.05903 1.34077 4.99058 1.37043 4.92981 1.41248C4.80709 1.4974 4.72314 1.62759 4.69641 1.77441L4.30313 3.9377H2.25C2.10082 3.9377 1.95774 3.99696 1.85225 4.10245C1.74676 4.20794 1.6875 4.35101 1.6875 4.5002C1.6875 4.64938 1.74676 4.79245 1.85225 4.89794C1.95774 5.00343 2.10082 5.0627 2.25 5.0627H4.09875L3.75797 6.9377H1.5C1.35082 6.9377 1.20774 6.99696 1.10225 7.10245C0.996763 7.20794 0.9375 7.35101 0.9375 7.50019C0.9375 7.64938 0.996763 7.79245 1.10225 7.89794C1.20774 8.00343 1.35082 8.06269 1.5 8.06269H3.55313L3.19641 10.0244C3.18287 10.0973 3.18386 10.172 3.19932 10.2445C3.21477 10.317 3.24439 10.3856 3.28646 10.4466C3.32853 10.5076 3.38224 10.5597 3.44449 10.5998C3.50675 10.64 3.57632 10.6675 3.64922 10.6807C3.68252 10.6862 3.71626 10.6885 3.75 10.6877C3.88172 10.6876 4.00924 10.6413 4.11032 10.5568C4.2114 10.4724 4.27963 10.3551 4.30313 10.2255L4.69687 8.06269H6.55313L6.19641 10.0244C6.18287 10.0973 6.18386 10.172 6.19932 10.2445C6.21477 10.317 6.24438 10.3856 6.28646 10.4466C6.32853 10.5076 6.38224 10.5597 6.44449 10.5998C6.50675 10.64 6.57632 10.6675 6.64922 10.6807C6.6826 10.687 6.7165 10.6901 6.75047 10.69C6.88219 10.69 7.00971 10.6436 7.11079 10.5592C7.21187 10.4747 7.2801 10.3575 7.30359 10.2279L7.69687 8.06269H9.75C9.89918 8.06269 10.0423 8.00343 10.1477 7.89794C10.2532 7.79245 10.3125 7.64938 10.3125 7.50019C10.3125 7.35101 10.2532 7.20794 10.1477 7.10245C10.0423 6.99696 9.89918 6.9377 9.75 6.9377H7.90125L8.24203 5.0627H10.5C10.6492 5.06269 10.7923 5.00343 10.8977 4.89794C11.0032 4.79245 11.0625 4.64938 11.0625 4.5002C11.0625 4.35101 11.0032 4.20794 10.8977 4.10245C10.7923 3.99696 10.6492 3.9377 10.5 3.9377ZM6.75797 6.9377H4.90125L5.24203 5.0627H7.09875L6.75797 6.9377Z"/>
</symbol>
<symbol id="icon-flag" viewBox="0 0 12 12" xmlns="http://www.w3.org/2000/svg">
<path d="M10.5 2.2505V7.8755C10.4997 7.92889 10.488 7.98159 10.4657 8.0301C10.4434 8.0786 10.411 8.12178 10.3706 8.15675C9.65438 8.7769 8.96953 9.0005 8.31656 9.0005C7.43016 9.0005 6.60234 8.59081 5.83219 8.21065C4.58766 7.59425 3.50578 7.06034 2.25 8.05222V10.1255C2.25 10.225 2.21049 10.3203 2.14016 10.3907C2.06984 10.461 1.97446 10.5005 1.875 10.5005C1.77554 10.5005 1.68016 10.461 1.60984 10.3907C1.53951 10.3203 1.5 10.225 1.5 10.1255V2.2505C1.50036 2.19707 1.51213 2.14434 1.53452 2.09584C1.55692 2.04733 1.58942 2.00417 1.62984 1.96925C3.31734 0.507686 4.83187 1.25628 6.16687 1.91675C7.45312 2.55331 8.56828 3.10362 9.87937 1.96925C9.93357 1.92227 10.0001 1.89182 10.0711 1.8815C10.142 1.87119 10.2145 1.88144 10.2798 1.91104C10.3451 1.94064 10.4006 1.98835 10.4396 2.04852C10.4786 2.10869 10.4996 2.17878 10.5 2.2505Z"/>
</symbol>


<symbol id="icon-chat-header" viewBox="0 0 32 32">
<path d="M27 6h-22c-0.53 0-1.039 0.211-1.414 0.586s-0.586 0.884-0.586 1.414v20c-0.002 0.381 0.106 0.755 0.31 1.077s0.498 0.577 0.845 0.736c0.265 0.123 0.553 0.187 0.845 0.187 0.47-0.001 0.923-0.169 1.281-0.473 0.006-0.004 0.011-0.009 0.016-0.014l4.015-3.514h16.687c0.531 0 1.039-0.211 1.414-0.586s0.586-0.884 0.586-1.414v-16c0-0.53-0.211-1.039-0.586-1.414s-0.884-0.586-1.414-0.586zM27 24h-16.687c-0.471-0-0.927 0.166-1.287 0.469l-0.015 0.014-4.010 3.517v-20h22v16zM11 14c0-0.265 0.105-0.52 0.293-0.707s0.442-0.293 0.707-0.293h8c0.265 0 0.52 0.105 0.707 0.293s0.293 0.442 0.293 0.707-0.105 0.52-0.293 0.707c-0.188 0.188-0.442 0.293-0.707 0.293h-8c-0.265 0-0.52-0.105-0.707-0.293s-0.293-0.442-0.293-0.707zM11 18c0-0.265 0.105-0.52 0.293-0.707s0.442-0.293 0.707-0.293h8c0.265 0 0.52 0.105 0.707 0.293s0.293 0.442 0.293 0.707-0.105 0.52-0.293 0.707c-0.188 0.188-0.442 0.293-0.707 0.293h-8c-0.265 0-0.52-0.105-0.707-0.293s-0.293-0.442-0.293-0.707z"></path>
</symbol>
<symbol id="icon-pluss-black" viewBox="0 0 32 32">
<path d="M16 3c-2.571 0-5.085 0.762-7.222 2.191s-3.804 3.459-4.788 5.834c-0.984 2.375-1.241 4.989-0.74 7.511s1.74 4.838 3.558 6.656c1.818 1.818 4.134 3.056 6.656 3.558s5.136 0.244 7.511-0.74c2.376-0.984 4.406-2.65 5.834-4.788s2.191-4.651 2.191-7.222c-0.004-3.447-1.375-6.751-3.812-9.188s-5.741-3.808-9.188-3.812zM21 17h-4v4c0 0.265-0.105 0.52-0.293 0.707s-0.442 0.293-0.707 0.293c-0.265 0-0.52-0.105-0.707-0.293s-0.293-0.442-0.293-0.707v-4h-4c-0.265 0-0.52-0.105-0.707-0.293s-0.293-0.442-0.293-0.707c0-0.265 0.105-0.52 0.293-0.707s0.442-0.293 0.707-0.293h4v-4c0-0.265 0.105-0.52 0.293-0.707s0.442-0.293 0.707-0.293c0.265 0 0.52 0.105 0.707 0.293s0.293 0.442 0.293 0.707v4h4c0.265 0 0.52 0.105 0.707 0.293s0.293 0.442 0.293 0.707c0 0.265-0.105 0.52-0.293 0.707s-0.442 0.293-0.707 0.293z"></path>
</symbol>
<symbol id="icon-popup-success" viewBox="0 0 30 32">
<path fill="#46cb4b" style="fill: var(--color1, #46cb4b)" d="M28.962 8.885l-2.857-2.805c-0.357-0.355-0.84-0.555-1.344-0.555s-0.987 0.2-1.344 0.555l-11.036 10.871-0.013-0.013-4.362-4.199c-0.358-0.354-0.841-0.552-1.345-0.551s-0.986 0.202-1.342 0.558l-2.857 2.857c-0.357 0.357-0.557 0.841-0.557 1.346s0.2 0.989 0.557 1.346l8.526 8.571c0.177 0.177 0.387 0.317 0.618 0.413s0.479 0.145 0.729 0.145c0.25 0 0.498-0.049 0.729-0.145s0.441-0.236 0.618-0.413l15.286-15.283c0.177-0.177 0.318-0.388 0.413-0.62s0.145-0.48 0.144-0.731-0.051-0.499-0.147-0.73c-0.097-0.231-0.238-0.441-0.416-0.618zM12.335 25.523l-8.526-8.571 2.857-2.857 0.013 0.013 4.362 4.199c0.357 0.353 0.838 0.551 1.34 0.551s0.984-0.198 1.34-0.551l11.046-10.879 2.85 2.81-15.283 15.286z"></path>
</symbol>
<symbol id="icon-logout" width="19" height="18" viewBox="0 0 19 18" xmlns="http://www.w3.org/2000/svg">
<path d="M12.2806 9.53063L8.53063 13.2806C8.46094 13.3503 8.37822 13.4056 8.28717 13.4433C8.19613 13.481 8.09855 13.5004 8 13.5004C7.90145 13.5004 7.80387 13.481 7.71283 13.4433C7.62178 13.4056 7.53906 13.3503 7.46937 13.2806C7.39969 13.2109 7.34442 13.1282 7.3067 13.0372C7.26899 12.9461 7.24958 12.8485 7.24958 12.75C7.24958 12.6515 7.26899 12.5539 7.3067 12.4628C7.34442 12.3718 7.39969 12.2891 7.46937 12.2194L9.93969 9.75H1.25C1.05109 9.75 0.860322 9.67098 0.71967 9.53033C0.579018 9.38968 0.5 9.19891 0.5 9C0.5 8.80109 0.579018 8.61032 0.71967 8.46967C0.860322 8.32902 1.05109 8.25 1.25 8.25H9.93969L7.46937 5.78063C7.32864 5.63989 7.24958 5.44902 7.24958 5.25C7.24958 5.05098 7.32864 4.86011 7.46937 4.71937C7.61011 4.57864 7.80098 4.49958 8 4.49958C8.19902 4.49958 8.38989 4.57864 8.53063 4.71937L12.2806 8.46937C12.3504 8.53903 12.4057 8.62175 12.4434 8.7128C12.4812 8.80384 12.5006 8.90144 12.5006 9C12.5006 9.09856 12.4812 9.19616 12.4434 9.2872C12.4057 9.37825 12.3504 9.46097 12.2806 9.53063ZM17 0H11.75C11.5511 0 11.3603 0.0790178 11.2197 0.21967C11.079 0.360322 11 0.551088 11 0.75C11 0.948912 11.079 1.13968 11.2197 1.28033C11.3603 1.42098 11.5511 1.5 11.75 1.5H17V16.5H11.75C11.5511 16.5 11.3603 16.579 11.2197 16.7197C11.079 16.8603 11 17.0511 11 17.25C11 17.4489 11.079 17.6397 11.2197 17.7803C11.3603 17.921 11.5511 18 11.75 18H17C17.3978 18 17.7794 17.842 18.0607 17.5607C18.342 17.2794 18.5 16.8978 18.5 16.5V1.5C18.5 1.10218 18.342 0.720644 18.0607 0.43934C17.7794 0.158035 17.3978 0 17 0Z"/>
</symbol>
<symbol id="icon-read-message" viewBox="0 0 32 32">
<path fill="#e5eeff" style="fill: var(--color1, #e5eeff)" d="M18.701 10.715l-11.2 11c-0.187 0.184-0.439 0.287-0.701 0.287s-0.514-0.103-0.701-0.287l-4.8-4.714c-0.094-0.092-0.168-0.202-0.22-0.323s-0.078-0.251-0.079-0.382c-0.001-0.131 0.024-0.262 0.073-0.383s0.122-0.233 0.214-0.326c0.092-0.094 0.202-0.168 0.323-0.22s0.251-0.078 0.382-0.079c0.131-0.001 0.262 0.024 0.383 0.073s0.233 0.122 0.326 0.214l4.099 4.025 10.5-10.313c0.189-0.186 0.445-0.289 0.71-0.287 0.131 0.001 0.261 0.028 0.382 0.080s0.231 0.126 0.323 0.22c0.092 0.094 0.165 0.205 0.214 0.326s0.074 0.252 0.073 0.384c-0.001 0.131-0.028 0.261-0.080 0.382s-0.126 0.231-0.22 0.323h-0.001zM30.714 9.3c-0.092-0.094-0.202-0.169-0.323-0.22s-0.251-0.078-0.382-0.080-0.262 0.024-0.384 0.073c-0.122 0.049-0.233 0.122-0.326 0.214l-10.5 10.313-2.354-2.313c-0.189-0.186-0.445-0.289-0.71-0.286s-0.519 0.11-0.704 0.299c-0.186 0.189-0.289 0.445-0.286 0.71s0.11 0.519 0.3 0.704l3.054 3c0.187 0.184 0.439 0.287 0.701 0.287s0.514-0.103 0.701-0.287l11.2-11c0.094-0.092 0.169-0.202 0.22-0.322s0.079-0.251 0.080-0.382-0.023-0.262-0.073-0.384c-0.049-0.122-0.122-0.233-0.214-0.327z"></path>
</symbol>
<symbol id="icon-copy" viewBox="0 0 32 32">
<path fill="#b5b5b5" style="fill: var(--color1, #b5b5b5)" d="M23 8h-18c-0.265 0-0.52 0.105-0.707 0.293s-0.293 0.442-0.293 0.707v18c0 0.265 0.105 0.52 0.293 0.707s0.442 0.293 0.707 0.293h18c0.265 0 0.52-0.105 0.707-0.293s0.293-0.442 0.293-0.707v-18c0-0.265-0.105-0.52-0.293-0.707s-0.442-0.293-0.707-0.293zM22 26h-16v-16h16v16zM28 5v18c0 0.265-0.105 0.52-0.293 0.707s-0.442 0.293-0.707 0.293-0.52-0.105-0.707-0.293c-0.187-0.188-0.293-0.442-0.293-0.707v-17h-17c-0.265 0-0.52-0.105-0.707-0.293s-0.293-0.442-0.293-0.707c0-0.265 0.105-0.52 0.293-0.707s0.442-0.293 0.707-0.293h18c0.265 0 0.52 0.105 0.707 0.293s0.293 0.442 0.293 0.707z"></path>
</symbol>
<symbol id="icon-password-steper" viewBox="0 0 30 32">
<path fill="#fff" style="fill: var(--color1, #fff)" d="M1.882 19.26c-2.51-1.449-2.51-5.072 0-6.521l21.176-12.226c2.51-1.449 5.647 0.362 5.647 3.26v24.453c0 2.898-3.137 4.709-5.647 3.26l-21.176-12.226z"></path>
</symbol>
<symbol id="icon-clipboard" viewBox="0 0 14 18" fill="none" xmlns="http://www.w3.org/2000/svg">
<path d="M10.125 10.8749C10.125 11.0406 10.0592 11.1996 9.94194 11.3168C9.82473 11.434 9.66576 11.4999 9.5 11.4999H4.5C4.33424 11.4999 4.17527 11.434 4.05806 11.3168C3.94085 11.1996 3.875 11.0406 3.875 10.8749C3.875 10.7091 3.94085 10.5502 4.05806 10.4329C4.17527 10.3157 4.33424 10.2499 4.5 10.2499H9.5C9.66576 10.2499 9.82473 10.3157 9.94194 10.4329C10.0592 10.5502 10.125 10.7091 10.125 10.8749ZM9.5 7.74989H4.5C4.33424 7.74989 4.17527 7.81573 4.05806 7.93295C3.94085 8.05016 3.875 8.20913 3.875 8.37489C3.875 8.54065 3.94085 8.69962 4.05806 8.81683C4.17527 8.93404 4.33424 8.99989 4.5 8.99989H9.5C9.66576 8.99989 9.82473 8.93404 9.94194 8.81683C10.0592 8.69962 10.125 8.54065 10.125 8.37489C10.125 8.20913 10.0592 8.05016 9.94194 7.93295C9.82473 7.81573 9.66576 7.74989 9.5 7.74989ZM13.875 2.74989V15.8749C13.875 16.2064 13.7433 16.5243 13.5089 16.7588C13.2745 16.9932 12.9565 17.1249 12.625 17.1249H1.375C1.04348 17.1249 0.725537 16.9932 0.491116 16.7588C0.256696 16.5243 0.125 16.2064 0.125 15.8749V2.74989C0.125 2.41837 0.256696 2.10042 0.491116 1.866C0.725537 1.63158 1.04348 1.49989 1.375 1.49989H4.20781C4.55899 1.1067 4.98924 0.792119 5.47041 0.576729C5.95158 0.361339 6.47282 0.25 7 0.25C7.52718 0.25 8.04841 0.361339 8.52958 0.576729C9.01076 0.792119 9.44101 1.1067 9.79219 1.49989H12.625C12.9565 1.49989 13.2745 1.63158 13.5089 1.866C13.7433 2.10042 13.875 2.41837 13.875 2.74989ZM4.5 3.99989H9.5C9.5 3.33685 9.23661 2.70096 8.76777 2.23212C8.29893 1.76328 7.66304 1.49989 7 1.49989C6.33696 1.49989 5.70107 1.76328 5.23223 2.23212C4.76339 2.70096 4.5 3.33685 4.5 3.99989ZM12.625 2.74989H10.5352C10.6773 3.15131 10.75 3.57403 10.75 3.99989V4.62489C10.75 4.79065 10.6842 4.94962 10.5669 5.06683C10.4497 5.18404 10.2908 5.24989 10.125 5.24989H3.875C3.70924 5.24989 3.55027 5.18404 3.43306 5.06683C3.31585 4.94962 3.25 4.79065 3.25 4.62489V3.99989C3.25001 3.57403 3.32267 3.15131 3.46484 2.74989H1.375V15.8749H12.625V2.74989Z" fill="#343330"/>
</symbol>
<symbol id="icon-popup-error" viewBox="0 0 30 32">
<path fill="#ff3b30" style="fill: var(--color1, #ff3b30)" d="M28.19 23.154l-10.411-18.080c-0.26-0.443-0.631-0.81-1.077-1.065s-0.951-0.389-1.464-0.389c-0.514 0-1.018 0.134-1.464 0.389s-0.817 0.622-1.077 1.065l-10.411 18.080c-0.25 0.428-0.382 0.916-0.382 1.412s0.132 0.983 0.382 1.412c0.257 0.446 0.628 0.815 1.074 1.070s0.953 0.387 1.467 0.381h20.821c0.514 0.005 1.020-0.127 1.466-0.382s0.817-0.624 1.073-1.069c0.251-0.428 0.383-0.915 0.383-1.412s-0.131-0.984-0.381-1.412zM14.286 13.143c0-0.253 0.1-0.495 0.279-0.673s0.421-0.279 0.673-0.279c0.253 0 0.495 0.1 0.673 0.279s0.279 0.421 0.279 0.673v4.762c0 0.253-0.1 0.495-0.279 0.673s-0.421 0.279-0.673 0.279c-0.253 0-0.495-0.1-0.673-0.279s-0.279-0.421-0.279-0.673v-4.762zM15.238 23.619c-0.283 0-0.559-0.084-0.794-0.241s-0.418-0.38-0.526-0.641-0.136-0.548-0.081-0.825c0.055-0.277 0.191-0.532 0.391-0.732s0.454-0.336 0.731-0.391c0.277-0.055 0.564-0.027 0.825 0.081s0.484 0.291 0.641 0.526c0.157 0.235 0.241 0.511 0.241 0.794 0 0.379-0.151 0.742-0.418 1.010s-0.631 0.418-1.010 0.418z"></path>
</symbol>
<symbol id="icon-mute-chat" viewBox="0 0 32 32">
<path fill="#b5b5b5" style="fill: var(--color1, #b5b5b5)" d="M19.439 3.101c-0.168-0.082-0.356-0.115-0.542-0.096s-0.363 0.091-0.51 0.206l-8.73 6.789h-5.656c-0.53 0-1.039 0.211-1.414 0.586s-0.586 0.884-0.586 1.414v8c0 0.53 0.211 1.039 0.586 1.414s0.884 0.586 1.414 0.586h5.656l8.73 6.789c0.148 0.115 0.325 0.186 0.511 0.205s0.374-0.014 0.542-0.096c0.168-0.082 0.31-0.21 0.409-0.369s0.152-0.342 0.152-0.529v-24c0-0.187-0.053-0.371-0.152-0.53s-0.241-0.287-0.409-0.369zM4 12h5v8h-5v-8zM18 25.955l-7-5.444v-9.023l7-5.444v19.91zM30.707 18.292c0.188 0.188 0.293 0.442 0.293 0.707s-0.105 0.52-0.293 0.707c-0.188 0.188-0.442 0.293-0.707 0.293s-0.52-0.105-0.707-0.293l-2.292-2.294-2.293 2.294c-0.188 0.188-0.442 0.293-0.707 0.293s-0.52-0.105-0.707-0.293c-0.188-0.188-0.293-0.442-0.293-0.707s0.105-0.52 0.293-0.707l2.294-2.292-2.294-2.293c-0.188-0.188-0.293-0.442-0.293-0.707s0.105-0.52 0.293-0.707c0.188-0.188 0.442-0.293 0.707-0.293s0.52 0.105 0.707 0.293l2.293 2.294 2.292-2.294c0.188-0.188 0.442-0.293 0.707-0.293s0.52 0.105 0.707 0.293c0.188 0.188 0.293 0.442 0.293 0.707s-0.105 0.52-0.293 0.707l-2.294 2.293 2.294 2.292z"></path>
</symbol>
<symbol id="icon-file-empty" viewBox="0 0 31 32">
<path d="M25.494 10.552l-6.682-6.682c-0.089-0.089-0.194-0.159-0.31-0.207s-0.24-0.073-0.365-0.072h-11.455c-0.506 0-0.992 0.201-1.35 0.559s-0.559 0.844-0.559 1.35v21c0 0.506 0.201 0.992 0.559 1.35s0.844 0.559 1.35 0.559h17.182c0.506 0 0.992-0.201 1.35-0.559s0.559-0.844 0.559-1.35v-15.273c0-0.125-0.025-0.25-0.072-0.365s-0.118-0.221-0.207-0.31zM19.091 6.849l3.423 3.423h-3.423v-3.423zM23.864 26.5h-17.182v-21h10.5v5.727c0 0.253 0.101 0.496 0.28 0.675s0.422 0.28 0.675 0.28h5.727v14.318z"></path>
</symbol>


</defs>
</svg>
